<?xml version="1.0" encoding="UTF-8" standalone="no"?>
<!-- Created with Inkscape (http://www.inkscape.org/) -->

<svg
   version="1.1"
   id="svg1"
   width="32"
   height="32"
   viewBox="0 0 32 32"
   sodipodi:docname="log-debug.svg"
   inkscape:version="1.3.2 (091e20e, 2023-11-25, custom)"
   xmlns:inkscape="http://www.inkscape.org/namespaces/inkscape"
   xmlns:sodipodi="http://sodipodi.sourceforge.net/DTD/sodipodi-0.dtd"
   xmlns="http://www.w3.org/2000/svg"
   xmlns:svg="http://www.w3.org/2000/svg">
  <defs
     id="defs1">
    <inkscape:path-effect
       effect="mirror_symmetry"
       start_point="0,16"
       end_point="32,16"
       center_point="16,16"
       id="path-effect16"
       is_visible="true"
       lpeversion="1.2"
       lpesatellites=""
       mode="horizontal"
       discard_orig_path="false"
       fuse_paths="false"
       oposite_fuse="false"
       split_items="false"
       split_open="false"
       link_styles="false" />
    <inkscape:path-effect
       effect="mirror_symmetry"
       start_point="16,0"
       end_point="16,32"
       center_point="16,16"
       id="path-effect15"
       is_visible="true"
       lpeversion="1.2"
       lpesatellites=""
       mode="vertical"
       discard_orig_path="false"
       fuse_paths="false"
       oposite_fuse="false"
       split_items="false"
       split_open="false"
       link_styles="false" />
    <inkscape:path-effect
       effect="mirror_symmetry"
       start_point="0,16"
       end_point="32,16"
       center_point="16,16"
       id="path-effect13"
       is_visible="true"
       lpeversion="1.2"
       lpesatellites=""
       mode="horizontal"
       discard_orig_path="false"
       fuse_paths="false"
       oposite_fuse="false"
       split_items="false"
       split_open="false"
       link_styles="false" />
    <inkscape:path-effect
       effect="mirror_symmetry"
       start_point="16,0"
       end_point="16,32"
       center_point="16,16"
       id="path-effect11"
       is_visible="true"
       lpeversion="1.2"
       lpesatellites=""
       mode="vertical"
       discard_orig_path="false"
       fuse_paths="false"
       oposite_fuse="false"
       split_items="false"
       split_open="false"
       link_styles="false" />
    <inkscape:path-effect
       effect="mirror_symmetry"
       start_point="0,16"
       end_point="32,16"
       center_point="16,16"
       id="path-effect10"
       is_visible="true"
       lpeversion="1.2"
       lpesatellites=""
       mode="horizontal"
       discard_orig_path="false"
       fuse_paths="false"
       oposite_fuse="false"
       split_items="false"
       split_open="false"
       link_styles="false" />
    <inkscape:path-effect
       effect="fillet_chamfer"
       id="path-effect9"
       is_visible="true"
       lpeversion="1"
       nodesatellites_param="F,0,0,1,0,9,0,1 @ F,0,0,1,0,4.1639707,0,1 @ F,0,0,1,0,9,0,1 @ F,0,1,1,0,0,0,1 @ F,0,1,1,0,0,0,1"
       radius="0"
       unit="px"
       method="auto"
       mode="F"
       chamfer_steps="1"
       flexible="false"
       use_knot_distance="true"
       apply_no_radius="true"
       apply_with_radius="true"
       only_selected="true"
       hide_knots="false" />
    <inkscape:path-effect
       effect="fillet_chamfer"
       id="path-effect2"
       is_visible="true"
       lpeversion="1"
       nodesatellites_param="F,0,0,1,0,7,0,1 @ F,0,0,1,0,7,0,1 @ F,0,0,1,0,7,0,1 @ F,0,0,1,0,7,0,1 @ F,0,0,1,0,7,0,1 @ F,0,0,1,0,7,0,1 @ F,0,0,1,0,7,0,1 @ F,0,0,1,0,7,0,1"
       radius="7"
       unit="px"
       method="auto"
       mode="F"
       chamfer_steps="1"
       flexible="false"
       use_knot_distance="true"
       apply_no_radius="true"
       apply_with_radius="true"
       only_selected="false"
       hide_knots="false" />
    <inkscape:path-effect
       effect="fillet_chamfer"
       id="path-effect1"
       is_visible="true"
       lpeversion="1"
       nodesatellites_param="F,0,1,1,0,4,0,1 @ F,0,0,1,0,4,0,1 @ F,0,0,1,0,4,0,1 @ F,0,0,1,0,4,0,1 @ F,0,0,1,0,4,0,1 @ F,0,0,1,0,4,0,1 @ F,0,0,1,0,4,0,1 @ F,0,0,1,0,4,0,1 @ F,0,0,1,0,4,0,1 @ F,0,0,1,0,4,0,1 @ F,0,0,1,0,2,0,1 @ F,0,1,1,0,4,0,1"
       radius="5"
       unit="px"
       method="auto"
       mode="F"
       chamfer_steps="1"
       flexible="false"
       use_knot_distance="true"
       apply_no_radius="true"
       apply_with_radius="true"
       only_selected="true"
       hide_knots="false" />
    <inkscape:path-effect
       effect="mirror_symmetry"
       start_point="0,16"
       end_point="32,16"
       center_point="16,16"
       id="path-effect8"
       is_visible="true"
       lpeversion="1.2"
       lpesatellites=""
       mode="horizontal"
       discard_orig_path="false"
       fuse_paths="true"
       oposite_fuse="true"
       split_items="false"
       split_open="false"
       link_styles="false" />
    <inkscape:path-effect
       effect="mirror_symmetry"
       start_point="16,0"
       end_point="16,32"
       center_point="16,16"
       id="path-effect7"
       is_visible="true"
       lpeversion="1.2"
       lpesatellites=""
       mode="vertical"
       discard_orig_path="false"
       fuse_paths="true"
       oposite_fuse="false"
       split_items="false"
       split_open="false"
       link_styles="false" />
    <inkscape:path-effect
       effect="fillet_chamfer"
       id="path-effect6"
       is_visible="true"
       lpeversion="1"
       nodesatellites_param="F,0,0,1,0,9,0,1 @ F,0,0,1,0,9,0,1 @ F,0,0,1,0,9,0,1 @ F,0,0,1,0,9,0,1"
       radius="10"
       unit="px"
       method="auto"
       mode="F"
       chamfer_steps="1"
       flexible="false"
       use_knot_distance="true"
       apply_no_radius="true"
       apply_with_radius="true"
       only_selected="false"
       hide_knots="false" />
    <inkscape:path-effect
       effect="fillet_chamfer"
       id="path-effect5"
       is_visible="true"
       lpeversion="1"
       nodesatellites_param="F,0,0,1,0,2,0,1 @ F,0,0,1,0,2,0,1 @ F,0,0,1,0,2,0,1 @ F,0,0,1,0,2,0,1 | F,0,0,1,0,2,0,1 @ F,0,0,1,0,2,0,1 @ F,0,0,1,0,2,0,1 @ F,0,0,1,0,2,0,1 | F,0,0,1,0,2,0,1 @ F,0,0,1,0,2,0,1 @ F,0,0,1,0,2,0,1 @ F,0,0,1,0,2,0,1 | F,0,0,1,0,2,0,1 @ F,0,0,1,0,2,0,1 @ F,0,0,1,0,2,0,1 @ F,0,0,1,0,2,0,1 | F,0,0,1,0,2,0,1 @ F,0,0,1,0,2,0,1 @ F,0,0,1,0,2,0,1 @ F,0,0,1,0,2,0,1 | F,0,0,1,0,2,0,1 @ F,0,0,1,0,2,0,1 @ F,0,0,1,0,2,0,1 @ F,0,0,1,0,2,0,1"
       radius="2"
       unit="px"
       method="auto"
       mode="F"
       chamfer_steps="1"
       flexible="false"
       use_knot_distance="true"
       apply_no_radius="true"
       apply_with_radius="true"
       only_selected="false"
       hide_knots="false" />
    <inkscape:path-effect
       effect="fillet_chamfer"
       id="path-effect4"
       is_visible="true"
       lpeversion="1"
       nodesatellites_param="F,0,0,1,0,5,0,1 @ F,0,0,1,0,5,0,1 @ F,0,0,1,0,5,0,1 @ F,0,0,1,0,5,0,1"
       radius="5"
       unit="px"
       method="auto"
       mode="F"
       chamfer_steps="1"
       flexible="false"
       use_knot_distance="true"
       apply_no_radius="true"
       apply_with_radius="true"
       only_selected="false"
       hide_knots="false" />
    <inkscape:path-effect
       effect="copy_rotate"
       starting_point="0,0"
       origin="16,16"
       id="path-effect3"
       is_visible="true"
       lpeversion="1.2"
       lpesatellites=""
       method="normal"
       num_copies="8"
       starting_angle="0"
       rotation_angle="120"
       gap="-0.01"
       copies_to_360="true"
       mirror_copies="false"
       split_items="false"
       link_styles="false" />
  </defs>
  <sodipodi:namedview
     id="namedview1"
     pagecolor="#ffffff"
     bordercolor="#000000"
     borderopacity="0.25"
     inkscape:showpageshadow="2"
     inkscape:pageopacity="0.0"
     inkscape:pagecheckerboard="0"
     inkscape:deskcolor="#d1d1d1"
     inkscape:zoom="17.014757"
     inkscape:cx="6.1711137"
     inkscape:cy="16.162441"
     inkscape:window-width="1920"
     inkscape:window-height="991"
     inkscape:window-x="1671"
     inkscape:window-y="869"
     inkscape:window-maximized="1"
     inkscape:current-layer="svg1" />
  <path
     id="path6"
     style="display:inline;fill-rule:evenodd;stroke-width:0"
     d="M 7.9480415,0.72239703 12.322732,3.0464514 c 2.299348,1.2215284 5.055188,1.2215284 7.354536,0 L 24.051959,0.72239703 C 27.655256,-1.1918546 32,1.4197905 32,5.5 V 16 H 0 V 5.5 C 0,1.4197905 4.3447443,-1.1918546 7.9480415,0.72239703 Z m 0,30.55520597 4.3746905,-2.324054 c 2.299348,-1.221529 5.055188,-1.221529 7.354536,0 l 4.374691,2.324054 C 27.655256,33.191855 32,30.58021 32,26.5 V 16 H 0 v 10.5 c 0,4.08021 4.3447443,6.691855 7.9480415,4.777603 z"
     inkscape:path-effect="#path-effect9;#path-effect16"
     inkscape:original-d="M 0,-3.5 16,5 32,-3.5 V 16 H 0 Z"
     sodipodi:nodetypes="cccccc" />
  <rect
     style="display:none;fill:#000000;fill-rule:evenodd;stroke-width:0"
     id="rect9"
     width="9.9325542"
     height="27.094128"
     x="0.11754502"
     y="2.9386256" />
  <path
     style="display:none;fill:#000000;fill-rule:evenodd;stroke-width:0"
     id="path9"
     inkscape:path-effect="#path-effect10;#path-effect11"
     sodipodi:type="arc"
     sodipodi:cx="4.75"
     sodipodi:cy="4.75"
     sodipodi:rx="4.75"
     sodipodi:ry="4.75"
     d="M 9.5,4.75 C 9.5,7.3733526 7.3733526,9.5 4.75,9.5 2.1266474,9.5 0,7.3733526 0,4.75 0,2.1266474 2.1266474,0 4.75,0 7.3733526,0 9.5,2.1266474 9.5,4.75 Z m 0,22.5 C 9.5,24.626647 7.3733526,22.5 4.75,22.5 2.1266474,22.5 0,24.626647 0,27.25 0,29.873353 2.1266474,32 4.75,32 7.3733526,32 9.5,29.873353 9.5,27.25 Z m 13,-22.5 c 0,2.6233526 2.126647,4.75 4.75,4.75 C 29.873353,9.5 32,7.3733526 32,4.75 32,2.1266474 29.873353,0 27.25,0 24.626647,0 22.5,2.1266474 22.5,4.75 Z m 0,22.5 c 0,-2.623353 2.126647,-4.75 4.75,-4.75 2.623353,0 4.75,2.126647 4.75,4.75 C 32,29.873353 29.873353,32 27.25,32 24.626647,32 22.5,29.873353 22.5,27.25 Z" />
  <path
     style="fill:#ffffff;fill-rule:evenodd;stroke-width:0"
     id="rect2"
     width="10"
     height="20"
     x="11"
     y="6"
     inkscape:path-effect="#path-effect4"
     sodipodi:type="rect"
     d="m 16,6 a 5,5 45 0 1 5,5 v 10 a 5,5 135 0 1 -5,5 5,5 45 0 1 -5,-5 V 11 a 5,5 135 0 1 5,-5 z" />
  <path
     id="rect3"
     d="m 3,14 h 5 a 2,2 45 0 1 2,2 2,2 135 0 1 -2,2 H 3 A 2,2 45 0 1 1,16 2,2 135 0 1 3,14 Z m 0.3933983,11.778174 3.5355341,-3.535533 a 2,2 6.7523721e-7 0 1 2.8284272,0 1.9999999,1.9999999 90.000003 0 1 -2e-7,2.828427 l -3.535534,3.535533 a 2.0000001,2.0000001 180 0 1 -2.8284272,0 1.9999999,1.9999999 90.000002 0 1 10e-8,-2.828427 z m 22.3847757,2.828427 -3.535533,-3.535533 a 2,2 90 0 1 0,-2.828428 1.9999999,1.9999999 2.5269982e-6 0 1 2.828427,10e-7 l 3.535533,3.535533 a 2,2 90 0 1 0,2.828428 1.9999999,1.9999999 2.5269981e-6 0 1 -2.828427,-10e-7 z M 29,18 h -5 a 2,2 45 0 1 -2,-2 2,2 135 0 1 2,-2 h 5 a 2,2 45 0 1 2,2 2,2 135 0 1 -2,2 z M 28.606601,6.2218254 25.071068,9.7573594 a 2,2 180 0 1 -2.828428,0 2,2 90.000002 0 1 10e-7,-2.828427 l 3.535533,-3.5355341 a 1.9999999,1.9999999 180 0 1 2.828428,0 2,2 90.000002 0 1 -10e-7,2.8284271 z M 6.2218254,3.3933983 9.7573594,6.9289324 a 2,2 90 0 1 0,2.8284272 1.9999999,1.9999999 2.3019192e-6 0 1 -2.828427,-2e-7 L 3.3933983,6.2218254 a 2,2 90 0 1 0,-2.8284272 2,2 7.2636555e-7 0 1 2.8284271,10e-8 z"
     style="fill:#ffffff;fill-rule:evenodd;stroke-width:0"
     sodipodi:nodetypes="cccccccccccccccccccccccccccccc"
     inkscape:path-effect="#path-effect5"
     inkscape:original-d="m 1,14 h 9 v 4 H 1 Z m 0.9791847,13.192388 6.3639613,-6.363961 2.828427,2.828427 -6.3639612,6.363961 z m 25.2132033,2.828427 -6.363961,-6.363961 2.828427,-2.828427 6.363961,6.363961 z M 31,18 h -9 v -4 h 9 z M 30.020815,4.8076118 23.656854,11.171573 20.828427,8.343146 27.192388,1.9791847 Z M 4.8076118,1.9791847 11.171573,8.343146 8.343146,11.171573 1.9791847,4.8076118 Z" />
  <path
     style="display:none;fill:#000000;fill-rule:evenodd;stroke-width:0"
     id="path11"
     inkscape:path-effect="#path-effect13;#path-effect15"
     sodipodi:type="arc"
     sodipodi:cx="4.75"
     sodipodi:cy="4.75"
     sodipodi:rx="4.75"
     sodipodi:ry="4.75"
     d="M 9.5,4.75 C 9.5,7.3733526 7.3733526,9.5 4.75,9.5 2.1266474,9.5 0,7.3733526 0,4.75 0,2.1266474 2.1266474,0 4.75,0 7.3733526,0 9.5,2.1266474 9.5,4.75 Z m 0,22.5 C 9.5,24.626647 7.3733526,22.5 4.75,22.5 2.1266474,22.5 0,24.626647 0,27.25 0,29.873353 2.1266474,32 4.75,32 7.3733526,32 9.5,29.873353 9.5,27.25 Z m 13,-22.5 c 0,2.6233526 2.126647,4.75 4.75,4.75 C 29.873353,9.5 32,7.3733526 32,4.75 32,2.1266474 29.873353,0 27.25,0 24.626647,0 22.5,2.1266474 22.5,4.75 Z m 0,22.5 c 0,-2.623353 2.126647,-4.75 4.75,-4.75 2.623353,0 4.75,2.126647 4.75,4.75 C 32,29.873353 29.873353,32 27.25,32 24.626647,32 22.5,29.873353 22.5,27.25 Z" />
</svg>
