<?xml version="1.0" encoding="UTF-8" standalone="no"?>
<!-- Uploaded to: SVG Repo, www.svgrepo.com, Generator: SVG Repo Mixer Tools -->

<svg
   fill="#000000"
   width="800px"
   height="800px"
   viewBox="0 0 24 24"
   version="1.1"
   id="svg1"
   sodipodi:docname="book.svg"
   inkscape:version="1.3.2 (091e20e, 2023-11-25, custom)"
   xmlns:inkscape="http://www.inkscape.org/namespaces/inkscape"
   xmlns:sodipodi="http://sodipodi.sourceforge.net/DTD/sodipodi-0.dtd"
   xmlns="http://www.w3.org/2000/svg"
   xmlns:svg="http://www.w3.org/2000/svg">
  <defs
     id="defs1">
    <inkscape:path-effect
       effect="mirror_symmetry"
       start_point="12,0"
       end_point="12,24"
       center_point="12,12"
       id="path-effect3"
       is_visible="true"
       lpeversion="1.2"
       lpesatellites=""
       mode="vertical"
       discard_orig_path="false"
       fuse_paths="false"
       oposite_fuse="false"
       split_items="false"
       split_open="false"
       link_styles="false" />
    <inkscape:path-effect
       effect="mirror_symmetry"
       start_point="12,0"
       end_point="12,24"
       center_point="12,12"
       id="path-effect2"
       is_visible="true"
       lpeversion="1.2"
       lpesatellites=""
       mode="vertical"
       discard_orig_path="false"
       fuse_paths="false"
       oposite_fuse="false"
       split_items="false"
       split_open="false"
       link_styles="false" />
    <inkscape:path-effect
       effect="fillet_chamfer"
       id="path-effect1"
       is_visible="true"
       lpeversion="1"
       nodesatellites_param="F,0,0,1,0,0.96,0,1 @ F,0,0,1,0,0.96,0,1 @ F,0,0,1,0,0.96,0,1 @ F,0,0,1,0,0.96,0,1 | F,0,0,1,0,0.96,0,1 @ F,0,0,1,0,0.96,0,1 @ F,0,0,1,0,0.96,0,1 @ F,0,0,1,0,0.96,0,1"
       radius="32"
       unit="px"
       method="auto"
       mode="F"
       chamfer_steps="1"
       flexible="false"
       use_knot_distance="true"
       apply_no_radius="true"
       apply_with_radius="true"
       only_selected="false"
       hide_knots="false" />
  </defs>
  <sodipodi:namedview
     id="namedview1"
     pagecolor="#505050"
     bordercolor="#eeeeee"
     borderopacity="1"
     inkscape:showpageshadow="0"
     inkscape:pageopacity="0"
     inkscape:pagecheckerboard="0"
     inkscape:deskcolor="#505050"
     inkscape:zoom="0.64965436"
     inkscape:cx="283.22753"
     inkscape:cy="567.99434"
     inkscape:window-width="1680"
     inkscape:window-height="961"
     inkscape:window-x="3591"
     inkscape:window-y="1104"
     inkscape:window-maximized="1"
     inkscape:current-layer="svg1" />
  <path
     id="rect4"
     style="fill:#000000;fill-opacity:1;fill-rule:evenodd;stroke-width:0;stroke-dasharray:none"
     d="M 5.4 2.4002344 C 3.8730063 2.4002345 2.3459732 2.6650953 0.88945312 3.1947656 C 0.39129512 3.3759233 1.0861373e-17 3.9851592 0 4.5153516 L 0 20.639766 C 2.8421681e-16 21.169957 0.39135172 21.420339 0.88951172 21.23918 C 3.8025519 20.17984 6.9975067 20.179839 9.9105469 21.23918 C 10.408704 21.420338 10.8 21.169957 10.8 20.639766 L 10.8 4.5153516 C 10.8 3.9851592 10.408648 3.3759238 9.9104883 3.1947656 C 8.4539681 2.6650957 6.9269937 2.4002342 5.4 2.4002344 z M 18.6 2.4002344 C 17.073007 2.4002342 15.546031 2.6650957 14.089512 3.1947656 C 13.591351 3.3759238 13.2 3.9851592 13.2 4.5153516 L 13.2 20.639766 C 13.2 21.169957 13.591296 21.420338 14.089453 21.23918 C 17.002493 20.179839 20.197448 20.17984 23.110488 21.23918 C 23.608649 21.420339 24 21.169957 24 20.639766 L 24 4.5153516 C 24 3.9851592 23.608704 3.3759233 23.110547 3.1947656 C 21.654026 2.6650953 20.126993 2.4002345 18.6 2.4002344 z " />
</svg>
