<?xml version="1.0" encoding="UTF-8" standalone="no"?>
<!-- Uploaded to: SVG Repo, www.svgrepo.com, Generator: SVG Repo Mixer Tools -->

<svg
   fill="#000000"
   version="1.1"
   id="Capa_1"
   width="800px"
   height="800px"
   viewBox="0 0 122.3 122.3"
   xml:space="preserve"
   sodipodi:docname="code.svg"
   inkscape:version="1.3.2 (091e20e, 2023-11-25, custom)"
   xmlns:inkscape="http://www.inkscape.org/namespaces/inkscape"
   xmlns:sodipodi="http://sodipodi.sourceforge.net/DTD/sodipodi-0.dtd"
   xmlns="http://www.w3.org/2000/svg"
   xmlns:svg="http://www.w3.org/2000/svg"><defs
   id="defs1" /><sodipodi:namedview
   id="namedview1"
   pagecolor="#ffffff"
   bordercolor="#000000"
   borderopacity="0.25"
   inkscape:showpageshadow="2"
   inkscape:pageopacity="0.0"
   inkscape:pagecheckerboard="0"
   inkscape:deskcolor="#d1d1d1"
   inkscape:zoom="0.9625"
   inkscape:cx="400"
   inkscape:cy="400"
   inkscape:window-width="1680"
   inkscape:window-height="961"
   inkscape:window-x="3591"
   inkscape:window-y="17"
   inkscape:window-maximized="1"
   inkscape:current-layer="Capa_1" />
<g
   id="g1">
	<path
   d="M 116.3,15.15 H 6 c -3.3,0 -6,2.7 -6,6 v 80 c 0,3.3 2.7,6 6,6 h 110.3 c 3.3,0 6,-2.7 6,-6 v -80 c 0,-3.3 -2.7,-6 -6,-6 z m -71.254,45.96325 -19.7,19.7 c -1.7,1.7 -4.2,2.3 -6.3,1.4 -4.3,-1.8 -5,-7 -2.1,-9.9 l 11.2,-11.2 c 2.3,-2.3 2.3,-6.1 0,-8.5 l -11.3,-11.2 c -2.9,-2.9 -2.2,-8.1 2.1,-9.9 2.2,-0.9 4.7,-0.3 6.3,1.4 l 19.7,19.7 c 1.2,1.2 1.8,2.7 1.8,4.2 0,1.5 -0.5,3.1 -1.7,4.3 z m 48.792,21.4 h -36 c -3.3,0 -6,-2.7 -6,-6 0,-3.3 2.7,-6 6,-6 h 36 c 3.3,0 6,2.7 6,6 0,3.3 -2.7,6 -6,6 z"
   id="path1"
   sodipodi:nodetypes="ssssssssssscssccccssssssssss" />
</g>
</svg>
