<?xml version="1.0" encoding="UTF-8" standalone="no"?>
<svg
   fill="#000000"
   width="800px"
   height="800px"
   viewBox="0 0 255.99316 255.99316"
   version="1.1"
   id="svg1"
   sodipodi:docname="copy.svg"
   inkscape:version="1.3.2 (091e20e, 2023-11-25, custom)"
   xmlns:inkscape="http://www.inkscape.org/namespaces/inkscape"
   xmlns:sodipodi="http://sodipodi.sourceforge.net/DTD/sodipodi-0.dtd"
   xmlns="http://www.w3.org/2000/svg"
   xmlns:svg="http://www.w3.org/2000/svg">
  <defs
     id="defs1">
    <inkscape:path-effect
       effect="fillet_chamfer"
       id="path-effect1"
       is_visible="true"
       lpeversion="1"
       nodesatellites_param="F,0,0,1,0,50,0,1 @ F,0,1,1,0,12,0,1 @ F,0,1,1,0,12,0,1 @ F,0,0,1,0,74,0,1 @ F,0,0,1,0,12,0,1 @ F,0,0,1,0,12,0,1 | F,0,0,1,0,50,0,1 @ F,0,0,1,0,50,0,1 @ F,0,0,1,0,50,0,1 @ F,0,0,1,0,50,0,1"
       radius="12"
       unit="px"
       method="auto"
       mode="F"
       chamfer_steps="1"
       flexible="false"
       use_knot_distance="true"
       apply_no_radius="true"
       apply_with_radius="true"
       only_selected="true"
       hide_knots="false" />
  </defs>
  <sodipodi:namedview
     id="namedview1"
     pagecolor="#ffffff"
     bordercolor="#000000"
     borderopacity="0.25"
     inkscape:showpageshadow="2"
     inkscape:pageopacity="0.0"
     inkscape:pagecheckerboard="0"
     inkscape:deskcolor="#d1d1d1"
     inkscape:zoom="0.48125"
     inkscape:cx="513.24675"
     inkscape:cy="182.85714"
     inkscape:window-width="1680"
     inkscape:window-height="961"
     inkscape:window-x="3591"
     inkscape:window-y="902"
     inkscape:window-maximized="1"
     inkscape:current-layer="svg1" />
  <path
     d="M 4.0419897e-5,50 1.451407e-4,179.99487 a 12.00001,12.00001 44.999977 0 0 12.0000098593,12 11.999599,11.999599 134.99809 0 0 11.9992,-12 l -2.4e-5,-81.995511 a 73.999978,73.999978 134.99999 0 1 73.999978,-74 h 81.995531 a 12.000025,12.000025 135.00006 0 0 12.00003,-12 A 11.999633,11.999633 44.99842 0 0 179.9949,4.5759153e-5 L 50,1.2711236e-5 A 49.999947,49.999947 134.99998 0 0 4.0419897e-5,50 Z M 97.998718,47.99877 205.99306,47.998735 a 49.999983,49.999983 44.99999 0 1 50,49.999983 V 205.99302 a 50.000017,50.000017 134.99999 0 1 -50,50.00002 l -107.994342,3e-5 a 49.999983,49.999983 44.99999 0 1 -50,-49.99998 l 0,-107.994303 a 50.000017,50.000017 134.99999 0 1 50,-50.000017 z"
     id="path1"
     sodipodi:nodetypes="cccccccccccc"
     inkscape:path-effect="#path-effect1"
     inkscape:original-d="M 1.4107499e-7,0 1.5480762e-4,191.99487 H 23.999359 l -5e-5,-167.995511 H 191.99484 L 191.9949,4.880985e-5 Z M 47.998718,47.998787 255.99306,47.998718 V 255.99302 l -207.994342,7e-5 z" />
</svg>
