<?xml version="1.0" encoding="UTF-8" standalone="no"?>
<!-- Uploaded to: SVG Repo, www.svgrepo.com, Generator: SVG Repo Mixer Tools -->

<svg
   version="1.1"
   id="svg2"
   sodipodi:docname="download.svg"
   inkscape:version="1.4 (86a8ad7, 2024-10-11)"
   width="800px"
   height="800px"
   viewBox="0 0 1200 1200"
   enable-background="new 0 0 1200 1200"
   xml:space="preserve"
   xmlns:inkscape="http://www.inkscape.org/namespaces/inkscape"
   xmlns:sodipodi="http://sodipodi.sourceforge.net/DTD/sodipodi-0.dtd"
   xmlns="http://www.w3.org/2000/svg"
   xmlns:svg="http://www.w3.org/2000/svg"><defs
   id="defs1" />
<sodipodi:namedview
   inkscape:cy="395.64407"
   inkscape:cx="267.43337"
   inkscape:zoom="0.63567236"
   showgrid="false"
   id="namedview30"
   guidetolerance="10"
   gridtolerance="10"
   objecttolerance="10"
   borderopacity="1"
   bordercolor="#666666"
   pagecolor="#ffffff"
   inkscape:current-layer="svg2"
   inkscape:window-maximized="1"
   inkscape:window-y="-11"
   inkscape:window-height="974"
   inkscape:window-width="1920"
   inkscape:pageshadow="2"
   inkscape:pageopacity="0"
   inkscape:window-x="-11"
   inkscape:showpageshadow="0"
   inkscape:pagecheckerboard="0"
   inkscape:deskcolor="#505050">
	</sodipodi:namedview>
<path
   id="path5755"
   inkscape:connector-curvature="0"
   d="m 75,1050 h 1050 c 42.3142,0 75,34.5991 75,75 0,40.4009 -32.7339,75 -75,75 H 75 c -41.332462,0 -75,-33.5518 -75,-75 0,-41.4482 33.511852,-75 75,-75 z M 825,75 C 825,33.519793 791.33508,0 750,0 H 450 C 408.45295,0 375,33.566546 375,75 V 450 H 190.3365 c -34.33994,0 -48.90577,41.59991 -27.2535,63.25219 L 545.535,917.439 c 31.62818,31.62818 78.20609,30.72391 108.93,0 L 1036.917,513.252 C 1058.8166,491.35243 1043.8678,450 1009.6635,450 H 825 Z"
   sodipodi:nodetypes="cczcczcccccccccccccc" />
</svg>
