<?xml version="1.0" encoding="UTF-8" standalone="no"?>
<!-- Uploaded to: SVG Repo, www.svgrepo.com, Generator: SVG Repo Mixer Tools -->

<svg
   fill="#000000"
   width="800px"
   height="800px"
   viewBox="0 0 512 512"
   version="1.1"
   id="svg1"
   sodipodi:docname="eyedrop-svgrepo-com.svg"
   inkscape:version="1.3.2 (091e20e, 2023-11-25, custom)"
   xmlns:inkscape="http://www.inkscape.org/namespaces/inkscape"
   xmlns:sodipodi="http://sodipodi.sourceforge.net/DTD/sodipodi-0.dtd"
   xmlns="http://www.w3.org/2000/svg"
   xmlns:svg="http://www.w3.org/2000/svg">
  <defs
     id="defs1" />
  <sodipodi:namedview
     id="namedview1"
     pagecolor="#ffffff"
     bordercolor="#000000"
     borderopacity="0.25"
     inkscape:showpageshadow="2"
     inkscape:pageopacity="0.0"
     inkscape:pagecheckerboard="0"
     inkscape:deskcolor="#d1d1d1"
     inkscape:zoom="0.34029514"
     inkscape:cx="249.78317"
     inkscape:cy="158.68578"
     inkscape:window-width="1680"
     inkscape:window-height="961"
     inkscape:window-x="3591"
     inkscape:window-y="1104"
     inkscape:window-maximized="1"
     inkscape:current-layer="svg1" />
  <title
     id="title1">ionicons-v5-k</title>
  <path
     d="M 490.34254,21.714285 C 476.47481,7.8692945 457.6983,0.06457546 438.10255,0 h -0.86857 c -19.18545,0.14430448 -37.48693,8.0862229 -50.69713,21.999999 -0.43781,0.449493 -0.84627,0.926668 -1.22285,1.428572 l -61.71427,79.725709 c -6.42285,8.11429 -14.55999,9.92 -19.17714,5.30286 l -2.17142,-2.17143 c -21.4364,-21.426636 -56.18247,-21.422647 -77.61397,0.009 -21.43151,21.4315 -21.4355,56.17758 -0.009,77.61399 l 11.32571,11.32572 c 0.89382,0.89283 0.89382,2.34145 0,3.23428 L 30.514103,403.86284 c -5.371427,5.33715 -13.48571,16.53714 -22.685708,52.13714 -4.6399986,17.95429 -7.43999772,33.89715 -7.5542834,34.56 -1.9596522,11.19001 6.6511219,21.43989 18.0114234,21.44 1.011006,0.001 2.020321,-0.0827 3.017142,-0.25143 0.662857,-0.11428 16.502852,-2.77714 34.434275,-7.36 35.508561,-9.07428 46.914268,-17.41714 52.399988,-22.85714 L 313.58831,276.05713 c 0.89151,-0.88622 2.33134,-0.88622 3.22285,0 l 11.33714,11.33715 c 21.43813,21.43497 56.19358,21.43238 77.62853,-0.006 21.43496,-21.43811 21.43243,-56.19358 -0.006,-77.62855 l -1.81714,-1.76 c -5.71428,-5.71428 -2.88,-13.84 4.93714,-19.58857 l 79.71426,-61.64571 c 0.58747,-0.4714 1.14833,-0.97503 1.68,-1.50857 13.83808,-13.53988 21.66121,-32.068349 21.71428,-51.428571 0.0585,-19.572177 -7.74423,-38.348217 -21.65713,-52.114284 z M 182.19404,355.7257 c -3.33714,3.33715 -18.49142,9.05143 -26.73142,0.81143 -8.24,-8.24 -2.56,-23.33714 0.78857,-26.68571 L 261.80546,224.29713 c 0.89283,-0.89383 2.34146,-0.89383 3.23429,0 l 22.67428,22.66286 c 0.89383,0.89283 0.89383,2.34146 0,3.23429 z"
     id="path1"
     style="stroke-width:1.14285"
     sodipodi:nodetypes="ccccccscscccccccccccccsccccccccssccccc" />
</svg>
