<?xml version="1.0" encoding="UTF-8" standalone="no"?>
<!-- Uploaded to: SVG Repo, www.svgrepo.com, Generator: SVG Repo Mixer Tools -->

<svg
   fill="#000000"
   width="800px"
   height="800px"
   viewBox="0 0 512 512"
   version="1.1"
   id="svg1"
   sodipodi:docname="flask.svg"
   inkscape:version="1.3.2 (091e20e, 2023-11-25, custom)"
   xmlns:inkscape="http://www.inkscape.org/namespaces/inkscape"
   xmlns:sodipodi="http://sodipodi.sourceforge.net/DTD/sodipodi-0.dtd"
   xmlns="http://www.w3.org/2000/svg"
   xmlns:svg="http://www.w3.org/2000/svg">
  <defs
     id="defs1" />
  <sodipodi:namedview
     id="namedview1"
     pagecolor="#ffffff"
     bordercolor="#000000"
     borderopacity="0.25"
     inkscape:showpageshadow="2"
     inkscape:pageopacity="0.0"
     inkscape:pagecheckerboard="0"
     inkscape:deskcolor="#d1d1d1"
     inkscape:zoom="0.9625"
     inkscape:cx="400"
     inkscape:cy="400"
     inkscape:window-width="1680"
     inkscape:window-height="961"
     inkscape:window-x="3591"
     inkscape:window-y="1104"
     inkscape:window-maximized="1"
     inkscape:current-layer="svg1" />
  <title
     id="title1">ionicons-v5-n</title>
  <path
     d="M 480.37421,380.57143 337.6085,154.42286 A 54.937144,54.937143 0 0 1 329.15136,125.12 V 36.571432 h 17.78285 c 9.84,0 18.28572,-7.565715 18.77715,-17.405714 A 18.285714,18.285714 0 0 0 347.43707,2.6065413e-6 H 165.0942 c -9.84,0 -18.28571,7.5657149934587 -18.77714,17.4057153934587 a 18.285714,18.285714 0 0 0 18.26286,19.165714 h 18.28571 V 125.12 a 54.765715,54.765714 0 0 1 -8.46857,29.29143 l -142.754287,226.16 A 84.57143,84.571428 0 0 0 28.78563,467.24571 C 43.939917,495.07428 73.562776,512 105.29992,512 h 301.41715 c 31.73714,0 61.36,-16.92572 76.51429,-44.81143 a 84.57143,84.571428 0 0 0 -2.85715,-86.61714 z M 205.3342,173.94286 A 91.360002,91.36 0 0 0 219.43706,125.12 V 41.14286 a 4.5714286,4.5714285 0 0 1 4.57143,-4.571428 h 64.00001 a 4.5714286,4.5714285 0 0 1 4.57143,4.571428 V 125.12 a 91.360002,91.36 0 0 0 14.11428,48.82286 l 66.05715,104.60571 a 9.1428573,9.1428571 0 0 1 -7.74857,14.02286 H 147.0142 a 9.1428573,9.1428571 0 0 1 -7.73714,-14.02286 z"
     id="path1"
     style="stroke-width:1.14286" />
</svg>
