<?xml version="1.0" encoding="UTF-8" standalone="no"?>
<!-- Uploaded to: SVG Repo, www.svgrepo.com, Generator: SVG Repo Mixer Tools -->

<svg
   fill="#000000"
   width="800px"
   height="800px"
   viewBox="0 0 512 512"
   version="1.1"
   id="svg2"
   sodipodi:docname="folder.svg"
   inkscape:version="1.3.2 (091e20e, 2023-11-25, custom)"
   xmlns:inkscape="http://www.inkscape.org/namespaces/inkscape"
   xmlns:sodipodi="http://sodipodi.sourceforge.net/DTD/sodipodi-0.dtd"
   xmlns="http://www.w3.org/2000/svg"
   xmlns:svg="http://www.w3.org/2000/svg">
  <defs
     id="defs2" />
  <sodipodi:namedview
     id="namedview2"
     pagecolor="#ffffff"
     bordercolor="#000000"
     borderopacity="0.25"
     inkscape:showpageshadow="2"
     inkscape:pageopacity="0.0"
     inkscape:pagecheckerboard="0"
     inkscape:deskcolor="#d1d1d1"
     inkscape:zoom="0.9625"
     inkscape:cx="400"
     inkscape:cy="400"
     inkscape:window-width="1680"
     inkscape:window-height="961"
     inkscape:window-x="3591"
     inkscape:window-y="1104"
     inkscape:window-maximized="1"
     inkscape:current-layer="svg2" />
  <title
     id="title1">ionicons-v5-n</title>
  <path
     id="path1"
     d="M 59.733333,51.200114 A 59.733333,59.733315 0 0 0 0,110.93343 v 51.19999 a 8.5333333,8.5333308 0 0 0 8.5333333,8.53333 H 503.46667 A 8.5333333,8.5333308 0 0 0 512,162.13342 V 145.06675 A 59.733333,59.733315 0 0 0 452.26667,85.333444 H 217.71733 A 25.482667,25.48266 0 0 1 203.52,81.066774 l -29.65333,-19.82933 a 59.488,59.487983 0 0 0 -33.184,-10.03733 z M 8.5333333,204.80008 A 8.5333333,8.5333308 0 0 0 0,213.3334 V 401.06668 A 59.733333,59.733315 0 0 0 59.733333,460.8 H 452.26667 A 59.733333,59.733315 0 0 0 512,401.06668 V 213.3334 a 8.5333333,8.5333308 0 0 0 -8.53333,-8.53332 z"
     style="stroke-width:1.06667" />
</svg>
