<?xml version="1.0" encoding="UTF-8" standalone="no"?>
<!-- Uploaded to: SVG Repo, www.svgrepo.com, Generator: SVG Repo Mixer Tools -->

<svg
   fill="#000000"
   width="800px"
   height="800px"
   viewBox="0 0 512 512"
   version="1.1"
   id="svg2"
   sodipodi:docname="folder-open.svg"
   inkscape:version="1.3.2 (091e20e, 2023-11-25, custom)"
   xmlns:inkscape="http://www.inkscape.org/namespaces/inkscape"
   xmlns:sodipodi="http://sodipodi.sourceforge.net/DTD/sodipodi-0.dtd"
   xmlns="http://www.w3.org/2000/svg"
   xmlns:svg="http://www.w3.org/2000/svg">
  <defs
     id="defs2" />
  <sodipodi:namedview
     id="namedview2"
     pagecolor="#ffffff"
     bordercolor="#000000"
     borderopacity="0.25"
     inkscape:showpageshadow="2"
     inkscape:pageopacity="0.0"
     inkscape:pagecheckerboard="0"
     inkscape:deskcolor="#d1d1d1"
     inkscape:zoom="0.9625"
     inkscape:cx="400"
     inkscape:cy="400"
     inkscape:window-width="1680"
     inkscape:window-height="961"
     inkscape:window-x="3591"
     inkscape:window-y="1104"
     inkscape:window-maximized="1"
     inkscape:current-layer="svg2" />
  <title
     id="title1">ionicons-v5-n</title>
  <path
     id="path1"
     d="M 93.832814,51.211314 A 59.794082,59.794046 0 0 0 34.102728,110.94136 v 25.5986 H 477.81194 c 0,-32.93683 -26.79324,-51.197186 -59.73008,-51.197186 H 251.80823 a 25.481281,25.481265 0 0 1 -14.19656,-4.26643 l -29.65172,-19.82824 a 59.484766,59.48473 0 0 0 -33.1822,-10.03679 z M 51.168467,170.67142 A 51.197216,51.197185 0 0 0 0.1632398,225.95371 v 0.29865 L 17.378304,401.96537 A 59.730086,59.73005 0 0 0 77.033728,460.7888 H 434.88094 a 59.730086,59.73005 0 0 0 59.65543,-58.82343 l 17.30039,-175.71301 v -0.29865 a 51.197216,51.197185 0 0 0 -50.9839,-55.28229 z"
     style="stroke-width:1.06661" />
</svg>
