<?xml version="1.0" encoding="UTF-8" standalone="no"?>
<!-- Uploaded to: SVG Repo, www.svgrepo.com, Generator: SVG Repo Mixer Tools -->

<svg
   fill="#000000"
   width="800px"
   height="800px"
   viewBox="0 0 512 512"
   version="1.1"
   id="svg4"
   sodipodi:docname="grid.svg"
   inkscape:version="1.3.2 (091e20e, 2023-11-25, custom)"
   xmlns:inkscape="http://www.inkscape.org/namespaces/inkscape"
   xmlns:sodipodi="http://sodipodi.sourceforge.net/DTD/sodipodi-0.dtd"
   xmlns="http://www.w3.org/2000/svg"
   xmlns:svg="http://www.w3.org/2000/svg">
  <defs
     id="defs4" />
  <sodipodi:namedview
     id="namedview4"
     pagecolor="#ffffff"
     bordercolor="#000000"
     borderopacity="0.25"
     inkscape:showpageshadow="2"
     inkscape:pageopacity="0.0"
     inkscape:pagecheckerboard="0"
     inkscape:deskcolor="#d1d1d1"
     inkscape:zoom="0.9625"
     inkscape:cx="400"
     inkscape:cy="400"
     inkscape:window-width="1680"
     inkscape:window-height="961"
     inkscape:window-x="3591"
     inkscape:window-y="1104"
     inkscape:window-maximized="1"
     inkscape:current-layer="svg4" />
  <title
     id="title1">ionicons-v5-i</title>
  <path
     id="path1"
     d="M 41.142857,0 A 41.142857,41.142857 0 0 0 0,41.142857 V 196.57143 a 41.142857,41.142857 0 0 0 41.142857,41.14286 H 196.57143 a 41.142857,41.142857 0 0 0 41.14286,-41.14286 V 41.142857 A 41.142857,41.142857 0 0 0 196.57143,0 Z M 315.42857,0 A 41.142857,41.142857 0 0 0 274.28571,41.142857 V 196.57143 a 41.142857,41.142857 0 0 0 41.14286,41.14286 H 470.85714 A 41.142857,41.142857 0 0 0 512,196.57143 V 41.142857 A 41.142857,41.142857 0 0 0 470.85714,0 Z M 41.142857,274.28571 A 41.142857,41.142857 0 0 0 0,315.42857 V 470.85714 A 41.142857,41.142857 0 0 0 41.142857,512 H 196.57143 a 41.142857,41.142857 0 0 0 41.14286,-41.14286 V 315.42857 a 41.142857,41.142857 0 0 0 -41.14286,-41.14286 z m 274.285713,0 a 41.142857,41.142857 0 0 0 -41.14286,41.14286 V 470.85714 A 41.142857,41.142857 0 0 0 315.42857,512 H 470.85714 A 41.142857,41.142857 0 0 0 512,470.85714 V 315.42857 a 41.142857,41.142857 0 0 0 -41.14286,-41.14286 z"
     style="stroke-width:1.14285" />
</svg>
