<?xml version="1.0" encoding="UTF-8" standalone="no"?>
<!-- Uploaded to: SVG Repo, www.svgrepo.com, Generator: SVG Repo Mixer Tools -->

<svg
   fill="#000000"
   width="800px"
   height="800px"
   viewBox="0 0 512 512"
   version="1.1"
   id="svg2"
   sodipodi:docname="hammer-svgrepo-com.svg"
   inkscape:version="1.3.2 (091e20e, 2023-11-25, custom)"
   xmlns:inkscape="http://www.inkscape.org/namespaces/inkscape"
   xmlns:sodipodi="http://sodipodi.sourceforge.net/DTD/sodipodi-0.dtd"
   xmlns="http://www.w3.org/2000/svg"
   xmlns:svg="http://www.w3.org/2000/svg">
  <defs
     id="defs2" />
  <sodipodi:namedview
     id="namedview2"
     pagecolor="#ffffff"
     bordercolor="#000000"
     borderopacity="0.25"
     inkscape:showpageshadow="2"
     inkscape:pageopacity="0.0"
     inkscape:pagecheckerboard="0"
     inkscape:deskcolor="#d1d1d1"
     inkscape:zoom="0.9625"
     inkscape:cx="285.71429"
     inkscape:cy="400"
     inkscape:window-width="1680"
     inkscape:window-height="961"
     inkscape:window-x="3591"
     inkscape:window-y="1104"
     inkscape:window-maximized="1"
     inkscape:current-layer="svg2" />
  <title
     id="title1">ionicons-v5-i</title>
  <path
     id="path1"
     d="m 254.33199,17.063365 c 33.66441,0 59.2648,15.18955 69.06758,24.192332 a 127.91637,127.91642 0 0 1 15.12554,17.301571 17.066894,17.066901 0 0 1 -19.8936,25.963022 79.41439,79.414424 0 0 0 -9.15212,-2.805371 67.691567,67.691596 0 0 0 -19.68027,-1.226684 c -14.06951,1.162683 -30.70975,8.149455 -38.06984,13.962855 -12.48015,10.03747 -18.48558,23.56301 -19.47759,43.82994 -0.192,4.07472 8.23479,19.34962 21.33362,36.77918 a 17.066894,17.066901 0 0 1 -1.54669,22.4003 l -36.70449,36.7045 a 17.066894,17.066901 0 0 1 -23.46698,0.66135 c -10.37879,-9.26945 -26.18702,-23.24299 -31.71242,-26.66704 -8.20276,-5.0454 -14.06952,-6.01608 -15.68021,-6.18675 a 20.458939,20.458948 0 0 0 -12.04283,2.5387 1.3226843,1.3226849 0 0 0 0.33068,1.01335 l 1.94136,1.84536 0.32,0.29867 a 22.954972,22.954982 0 0 1 -0.0533,32.57644 L 98.425932,276.41626 A 22.880305,22.880315 0 0 1 82.127048,283.08302 23.146975,23.146985 0 0 1 65.892165,276.4696 L 6.6913479,217.99412 c -0.2026693,-0.20267 -0.4053386,-0.416 -0.5973412,-0.62934 a 23.328311,23.328321 0 0 1 0.2986706,-31.76577 l 0.330671,-0.33067 36.5551537,-36.18183 a 22.890972,22.890982 0 0 1 16.298884,-6.67743 23.349644,23.349654 0 0 1 13.642847,4.41606 c 0,-0.45867 -0.064,-0.90668 -0.096,-1.30135 -0.480007,-6.93341 -1.226673,-17.40824 5.54674,-26.9017 a 275.20367,275.20379 0 0 1 26.453687,-30.65642 0.64000852,0.6400088 0 0 1 0.0853,-0.0853 c 14.20819,-13.994848 45.13132,-40.352577 92.50257,-59.670156 a 148.85532,148.85538 0 0 1 56.61943,-11.146819 z m 27.79237,186.983905 a 34.133788,34.133802 0 0 1 24.10165,9.87213 l 193.63458,178.70113 c 7.05075,6.64541 11.68016,15.11488 12.10683,24.59767 a 34.251123,34.251137 0 0 1 -9.82413,25.53635 l -41.60056,42.05925 a 0.4906732,0.49067341 0 0 1 -0.0747,0.0747 34.443126,34.44314 0 0 1 -24.20298,10.04814 h -1.25869 c -9.48278,-0.35201 -17.97358,-4.80008 -24.71499,-11.91483 L 230.34233,290.27245 A 34.133788,34.133802 0 0 1 230.225,241.90912 l 27.85104,-27.86172 a 34.133788,34.133802 0 0 1 24.04832,-10.00013 z"
     style="stroke-width:1.06668" />
</svg>
