<?xml version="1.0" encoding="iso-8859-1"?>
<!-- Uploaded to: SVG Repo, www.svgrepo.com, Generator: SVG Repo Mixer Tools -->
<!DOCTYPE svg PUBLIC "-//W3C//DTD SVG 1.1//EN" "http://www.w3.org/Graphics/SVG/1.1/DTD/svg11.dtd">
<svg fill="#000000" version="1.1" id="Capa_1" xmlns="http://www.w3.org/2000/svg" xmlns:xlink="http://www.w3.org/1999/xlink" 
	 width="800px" height="800px" viewBox="0 0 46 46" xml:space="preserve">
<g>
	<path d="M12.813,0C8.786,0,5.521,3.265,5.521,7.291v31.418c0,4.025,3.265,7.291,7.292,7.291h20.374
		c4.027,0,7.292-3.266,7.292-7.291V7.291C40.478,3.265,37.212,0,33.185,0H12.813z M29.511,15.052c0,1.109-0.898,2.008-2.008,2.008
		h-9.008c-1.109,0-2.007-0.898-2.007-2.008V6.045c0-1.109,0.898-2.009,2.007-2.009h9.008c1.108,0,2.008,0.899,2.008,2.009V15.052z
		 M32.093,38.766H13.904c-1.38,0-2.5-1.134-2.5-2.514c0-1.382,1.119-2.514,2.5-2.514h18.189c1.381,0,2.5,1.132,2.5,2.514
		C34.593,37.632,33.474,38.766,32.093,38.766z M32.093,30.77H13.904c-1.38,0-2.5-1.134-2.5-2.514c0-1.382,1.119-2.514,2.5-2.514
		h18.189c1.381,0,2.5,1.132,2.5,2.514C34.593,29.636,33.474,30.77,32.093,30.77z"/>
</g>
</svg>