<?xml version="1.0" encoding="utf-8"?>

<!DOCTYPE svg PUBLIC "-//W3C//DTD SVG 1.1//EN" "http://www.w3.org/Graphics/SVG/1.1/DTD/svg11.dtd">
<!-- Uploaded to: SVG Repo, www.svgrepo.com, Generator: SVG Repo Mixer Tools -->
<svg version="1.1" id="_x32_" xmlns="http://www.w3.org/2000/svg" xmlns:xlink="http://www.w3.org/1999/xlink" 
	 width="800px" height="800px" viewBox="0 0 512 512"  xml:space="preserve">
<style type="text/css">
<![CDATA[
	.st0{fill:#000000;}
]]>
</style>
<g>
	<path class="st0" d="M256,0C165.516,0,92.172,73.344,92.172,163.828c0,57.141,29.266,107.469,73.609,136.781
		c25.875,17.094,28.188,29.859,28.188,61.766h124.063c0-31.906,2.313-44.672,28.172-61.766
		c44.359-29.313,73.625-79.641,73.625-136.781C419.828,73.344,346.484,0,256,0z"/>
	<path class="st0" d="M311.578,383.781H200.422c-8.563,0-15.516,6.938-15.516,15.5c0,8.578,6.953,15.516,15.516,15.516h111.156
		c8.563,0,15.516-6.938,15.516-15.516C327.094,390.719,320.141,383.781,311.578,383.781z"/>
	<path class="st0" d="M311.578,434.906H200.422c-8.563,0-15.516,6.953-15.516,15.531c0,8.563,6.953,15.5,15.516,15.5h111.156
		c8.563,0,15.516-6.938,15.516-15.5C327.094,441.859,320.141,434.906,311.578,434.906z"/>
	<path class="st0" d="M256.375,512c15.094,0,28.219-8.438,34.922-20.844h-69.844C228.156,503.563,241.281,512,256.375,512z"/>
</g>
</svg>