<?xml version="1.0" encoding="UTF-8" standalone="no"?>
<!-- Uploaded to: SVG Repo, www.svgrepo.com, Generator: SVG Repo Mixer Tools -->

<svg
   fill="#000000"
   width="800px"
   height="800px"
   viewBox="0 0 512 512"
   version="1.1"
   id="svg1"
   sodipodi:docname="list.svg"
   inkscape:version="1.3.2 (091e20e, 2023-11-25, custom)"
   xmlns:inkscape="http://www.inkscape.org/namespaces/inkscape"
   xmlns:sodipodi="http://sodipodi.sourceforge.net/DTD/sodipodi-0.dtd"
   xmlns="http://www.w3.org/2000/svg"
   xmlns:svg="http://www.w3.org/2000/svg"
   xmlns:rdf="http://www.w3.org/1999/02/22-rdf-syntax-ns#"
   xmlns:cc="http://creativecommons.org/ns#"
   xmlns:dc="http://purl.org/dc/elements/1.1/">
  <defs
     id="defs1" />
  <sodipodi:namedview
     id="namedview1"
     pagecolor="#ffffff"
     bordercolor="#000000"
     borderopacity="0.25"
     inkscape:showpageshadow="2"
     inkscape:pageopacity="0.0"
     inkscape:pagecheckerboard="0"
     inkscape:deskcolor="#d1d1d1"
     inkscape:zoom="0.68059028"
     inkscape:cx="333.534"
     inkscape:cy="335.00332"
     inkscape:window-width="1920"
     inkscape:window-height="991"
     inkscape:window-x="1671"
     inkscape:window-y="869"
     inkscape:window-maximized="1"
     inkscape:current-layer="svg1" />
  <title
     id="title1">ionicons-v5-l</title>
  <metadata
     id="metadata1">
    <rdf:RDF>
      <cc:Work
         rdf:about="">
        <dc:title>ionicons-v5-l</dc:title>
      </cc:Work>
    </rdf:RDF>
  </metadata>
  <path
     id="path1"
     style="fill:#000000;fill-rule:evenodd;stroke-width:0"
     d="M 51.2 0 A 51.200001 51.200001 0 0 0 0 51.2 A 51.200001 51.200001 0 0 0 51.2 102.4 A 51.200001 51.200001 0 0 0 102.4 51.2 A 51.200001 51.200001 0 0 0 51.2 0 z M 256 0 A 51.200001 51.200001 0 0 0 204.8 51.2 A 51.200001 51.200001 0 0 0 256 102.4 L 460.8 102.4 A 51.200001 51.200001 0 0 0 512 51.2 A 51.200001 51.200001 0 0 0 460.8 0 L 256 0 z M 51.2 204.8 A 51.200001 51.200001 0 0 0 0 256 A 51.200001 51.200001 0 0 0 51.2 307.2 A 51.200001 51.200001 0 0 0 102.4 256 A 51.200001 51.200001 0 0 0 51.2 204.8 z M 256 204.8 A 51.200001 51.200001 0 0 0 204.8 256 A 51.200001 51.200001 0 0 0 256 307.2 L 460.8 307.2 A 51.200001 51.200001 0 0 0 512 256 A 51.200001 51.200001 0 0 0 460.8 204.8 L 256 204.8 z M 51.2 409.6 A 51.200001 51.200001 0 0 0 0 460.8 A 51.200001 51.200001 0 0 0 51.2 512 A 51.200001 51.200001 0 0 0 102.4 460.8 A 51.200001 51.200001 0 0 0 51.2 409.6 z M 256 409.6 A 51.200001 51.200001 0 0 0 204.8 460.8 A 51.200001 51.200001 0 0 0 256 512 L 460.8 512 A 51.200001 51.200001 0 0 0 512 460.8 A 51.200001 51.200001 0 0 0 460.8 409.6 L 256 409.6 z " />
</svg>
