<?xml version="1.0" encoding="UTF-8" standalone="no"?>
<!-- Uploaded to: SVG Repo, www.svgrepo.com, Generator: SVG Repo Mixer Tools -->

<svg
   width="800px"
   height="800px"
   viewBox="0 0 24 24"
   fill="none"
   version="1.1"
   id="svg1"
   sodipodi:docname="log-shutdown.svg"
   inkscape:version="1.3.2 (091e20e, 2023-11-25, custom)"
   xmlns:inkscape="http://www.inkscape.org/namespaces/inkscape"
   xmlns:sodipodi="http://sodipodi.sourceforge.net/DTD/sodipodi-0.dtd"
   xmlns="http://www.w3.org/2000/svg"
   xmlns:svg="http://www.w3.org/2000/svg">
  <path
     id="path2"
     style="fill:#000000;fill-rule:evenodd;stroke-width:0"
     d="M 12 0 A 12 12 0 0 0 0 12 A 12 12 0 0 0 12 24 A 12 12 0 0 0 24 12 A 12 12 0 0 0 12 0 z M 8.7894141 2.2504688 A 0.88630548 0.88630548 0 0 1 9.628418 3.4964648 L 9.628418 3.4973437 C 8.3131413 6.4558285 8.8121409 10.057777 11.262773 12.509297 C 13.708089 14.954611 17.328673 15.475718 20.510508 14.304023 A 0.88630548 0.88630548 0 0 1 21.657363 15.415488 C 21.228393 16.70329 20.384653 17.729643 19.443398 18.670898 C 15.485161 22.629136 9.2880745 22.857809 5.28375 18.852598 A 10.102996 10.102996 0 0 1 5.28375 4.5103711 C 6.2250057 3.5682291 7.2513674 2.7244401 8.5382812 2.2954687 A 0.88630548 0.88630548 0 0 1 8.7894141 2.2504688 z " />
  <defs
     id="defs1" />
  <sodipodi:namedview
     id="namedview1"
     pagecolor="#ffffff"
     bordercolor="#000000"
     borderopacity="0.25"
     inkscape:showpageshadow="2"
     inkscape:pageopacity="0.0"
     inkscape:pagecheckerboard="0"
     inkscape:deskcolor="#d1d1d1"
     inkscape:zoom="0.68059028"
     inkscape:cx="274.76149"
     inkscape:cy="404.06102"
     inkscape:window-width="1920"
     inkscape:window-height="991"
     inkscape:window-x="1671"
     inkscape:window-y="1071"
     inkscape:window-maximized="1"
     inkscape:current-layer="svg1" />
</svg>
