<?xml version="1.0" encoding="UTF-8" standalone="no"?>
<!-- Uploaded to: SVG Repo, www.svgrepo.com, Generator: SVG Repo Mixer Tools -->

<svg
   height="800px"
   width="800px"
   version="1.1"
   id="Capa_1"
   viewBox="0 0 399.934 399.934"
   xml:space="preserve"
   sodipodi:docname="log-detail.svg"
   inkscape:version="1.3.2 (091e20e, 2023-11-25, custom)"
   xmlns:inkscape="http://www.inkscape.org/namespaces/inkscape"
   xmlns:sodipodi="http://sodipodi.sourceforge.net/DTD/sodipodi-0.dtd"
   xmlns="http://www.w3.org/2000/svg"
   xmlns:svg="http://www.w3.org/2000/svg"><defs
   id="defs1" /><sodipodi:namedview
   id="namedview1"
   pagecolor="#ffffff"
   bordercolor="#000000"
   borderopacity="0.25"
   inkscape:showpageshadow="2"
   inkscape:pageopacity="0.0"
   inkscape:pagecheckerboard="0"
   inkscape:deskcolor="#d1d1d1"
   inkscape:zoom="0.68059028"
   inkscape:cx="402.5917"
   inkscape:cy="377.61339"
   inkscape:window-width="1920"
   inkscape:window-height="991"
   inkscape:window-x="1671"
   inkscape:window-y="1071"
   inkscape:window-maximized="1"
   inkscape:current-layer="Capa_1" />
<path
   id="path2"
   style="fill:#000000;fill-rule:evenodd;stroke-width:0"
   d="M 199.967 0 A 199.967 199.967 0 0 0 0 199.967 A 199.967 199.967 0 0 0 199.967 399.934 A 199.967 199.967 0 0 0 399.934 199.967 A 199.967 199.967 0 0 0 199.967 0 z M 162.00159 49.99175 C 223.78189 49.99175 274.0512 100.25004 274.05048 162.00159 C 274.05048 179.00354 270.1364 195.07132 263.32959 209.48496 L 326.28404 272.48628 C 341.1649 287.32616 341.1649 311.46213 326.28404 326.30845 C 311.44419 341.17206 287.34271 341.17206 272.46187 326.30845 L 209.50742 263.33057 C 195.07077 270.13738 179.00354 274.05145 162.00159 274.05145 C 100.26873 274.05145 49.99745 223.79339 49.99175 162.00159 C 49.99175 100.25076 100.26873 49.99175 162.00159 49.99175 z " /><path
   style="fill:#000000;fill-rule:evenodd;stroke-width:0"
   d="m 162.00436,102.63156 c -32.72843,0 -59.3728,26.64437 -59.3728,59.3728 0,32.77682 26.64437,59.40713 59.3728,59.40713 32.75908,0 59.3896,-26.63085 59.3896,-59.40713 0,-32.72843 -26.63052,-59.3728 -59.3896,-59.3728 z"
   id="path4" />
</svg>
