<?xml version="1.0" encoding="UTF-8" standalone="no"?>
<!-- Uploaded to: SVG Repo, www.svgrepo.com, Generator: SVG Repo Mixer Tools -->

<svg
   width="800px"
   height="800px"
   viewBox="0 0 16 16"
   fill="none"
   version="1.1"
   id="svg9"
   sodipodi:docname="log-init.svg"
   inkscape:version="1.3.2 (091e20e, 2023-11-25, custom)"
   xmlns:inkscape="http://www.inkscape.org/namespaces/inkscape"
   xmlns:sodipodi="http://sodipodi.sourceforge.net/DTD/sodipodi-0.dtd"
   xmlns="http://www.w3.org/2000/svg"
   xmlns:svg="http://www.w3.org/2000/svg">
  <path
     id="path8"
     style="fill:#000000;fill-rule:evenodd;stroke-width:0"
     d="M 8 0 A 8 8 0 0 0 0 8 A 8 8 0 0 0 8 16 A 8 8 0 0 0 16 8 A 8 8 0 0 0 8 0 z M 8 0.74 A 1.2 1.2 0 0 1 9.2 1.94 L 9.2 3.54 A 1.2 1.2 0 0 1 8 4.74 A 1.2 1.2 0 0 1 6.8 3.54 L 6.8 1.94 A 1.2 1.2 0 0 1 8 0.74 z M 2.8146875 3.7716406 A 1.2 1.2 0 0 1 3.351875 3.9307812 L 4.7375391 4.7307812 A 1.2 1.2 0 0 1 5.1767578 6.37 A 1.2 1.2 0 0 1 3.5375391 6.8092188 L 2.151875 6.0092188 A 1.2 1.2 0 0 1 1.7126562 4.37 A 1.2 1.2 0 0 1 2.6264453 3.7765625 A 1.2 1.2 0 0 1 2.8146875 3.7716406 z M 13.185313 3.7716406 A 1.2 1.2 0 0 1 13.373555 3.7765625 A 1.2 1.2 0 0 1 14.287344 4.37 A 1.2 1.2 0 0 1 13.848125 6.0092188 L 12.462461 6.8092188 A 1.2 1.2 0 0 1 10.823242 6.37 A 1.2 1.2 0 0 1 11.262461 4.7307812 L 12.648125 3.9307812 A 1.2 1.2 0 0 1 13.185313 3.7716406 z M 8 5.5625 C 9.3461825 5.5625 10.4375 6.6538175 10.4375 8 C 10.4375 9.3461825 9.3461825 10.4375 8 10.4375 C 6.6538175 10.4375 5.5625 9.3461825 5.5625 8 C 5.5625 6.6538175 6.6538175 5.5625 8 5.5625 z M 4.0747266 9.0316406 A 1.2 1.2 0 0 1 4.2629687 9.0365625 A 1.2 1.2 0 0 1 5.1767578 9.63 A 1.2 1.2 0 0 1 4.7375391 11.269219 L 3.351875 12.069219 A 1.2 1.2 0 0 1 1.7126562 11.63 A 1.2 1.2 0 0 1 2.151875 9.9907812 L 3.5375391 9.1907813 A 1.2 1.2 0 0 1 4.0747266 9.0316406 z M 11.925273 9.0316406 A 1.2 1.2 0 0 1 12.462461 9.1907813 L 13.848125 9.9907812 A 1.2 1.2 0 0 1 14.287344 11.63 A 1.2 1.2 0 0 1 12.648125 12.069219 L 11.262461 11.269219 A 1.2 1.2 0 0 1 10.823242 9.63 A 1.2 1.2 0 0 1 11.737031 9.0365625 A 1.2 1.2 0 0 1 11.925273 9.0316406 z M 8 11.26 A 1.2 1.2 0 0 1 9.2 12.46 L 9.2 14.06 A 1.2 1.2 0 0 1 8 15.26 A 1.2 1.2 0 0 1 6.8 14.06 L 6.8 12.46 A 1.2 1.2 0 0 1 8 11.26 z " />
  <defs
     id="defs9">
    <inkscape:path-effect
       effect="fillet_chamfer"
       id="path-effect13"
       is_visible="true"
       lpeversion="1"
       nodesatellites_param="F,0,0,1,0,1,0,1 @ F,0,0,1,0,1,0,1 @ F,0,0,1,0,1,0,1 @ F,0,0,1,0,1,0,1 @ F,0,0,1,0,1,0,1 @ F,0,0,1,0,1,0,1"
       radius="1"
       unit="px"
       method="auto"
       mode="F"
       chamfer_steps="1"
       flexible="false"
       use_knot_distance="true"
       apply_no_radius="true"
       apply_with_radius="true"
       only_selected="false"
       hide_knots="false" />
    <inkscape:path-effect
       effect="fillet_chamfer"
       id="path-effect12"
       is_visible="true"
       lpeversion="1"
       nodesatellites_param="F,0,0,1,0,1.2,0,1 @ F,0,0,1,0,1.2,0,1 @ F,0,0,1,0,1.2,0,1 @ F,0,0,1,0,1.2,0,1 | F,0,0,1,0,1.2,0,1 @ F,0,0,1,0,1.2,0,1 @ F,0,0,1,0,1.2,0,1 @ F,0,0,1,0,1.2,0,1 | F,0,0,1,0,1.2,0,1 @ F,0,0,1,0,1.2,0,1 @ F,0,0,1,0,1.2,0,1 @ F,0,0,1,0,1.2,0,1 | F,0,0,1,0,1.2,0,1 @ F,0,0,1,0,1.2,0,1 @ F,0,0,1,0,1.2,0,1 @ F,0,0,1,0,1.2,0,1 | F,0,0,1,0,1.2,0,1 @ F,0,0,1,0,1.2,0,1 @ F,0,0,1,0,1.2,0,1 @ F,0,0,1,0,1.2,0,1 | F,0,0,1,0,1.2,0,1 @ F,0,0,1,0,1.2,0,1 @ F,0,0,1,0,1.2,0,1 @ F,0,0,1,0,1.2,0,1"
       radius="1.2"
       unit="px"
       method="auto"
       mode="F"
       chamfer_steps="1"
       flexible="false"
       use_knot_distance="true"
       apply_no_radius="true"
       apply_with_radius="true"
       only_selected="false"
       hide_knots="false" />
    <inkscape:path-effect
       effect="copy_rotate"
       starting_point="0,0"
       origin="8,8"
       id="path-effect11"
       is_visible="true"
       lpeversion="1.2"
       lpesatellites=""
       method="normal"
       num_copies="6"
       starting_angle="0"
       rotation_angle="72"
       gap="-0.01"
       copies_to_360="true"
       mirror_copies="false"
       split_items="false"
       link_styles="false" />
    <inkscape:path-effect
       effect="fillet_chamfer"
       id="path-effect9"
       is_visible="true"
       lpeversion="1"
       nodesatellites_param="F,0,1,1,0,1,0,1 @ F,0,1,1,0,1,0,1 @ F,0,1,1,0,1,0,1 @ F,0,1,1,0,1,0,1 | F,0,1,1,0,1,0,1 @ F,0,1,1,0,1,0,1 @ F,0,1,1,0,1,0,1 @ F,0,1,1,0,1,0,1 | F,0,1,1,0,1,0,1 @ F,0,1,1,0,1,0,1 @ F,0,1,1,0,1,0,1 @ F,0,1,1,0,1,0,1 | F,0,0,1,0,0,0,1 @ F,0,0,1,0,0,0,1 @ F,0,0,1,0,0,0,1 @ F,0,0,1,0,0,0,1 | F,0,1,1,0,1,0,1 @ F,0,1,1,0,1,0,1 @ F,0,1,1,0,1,0,1 @ F,0,1,1,0,1,0,1 | F,0,1,1,0,1,0,1 @ F,0,1,1,0,1,0,1 @ F,0,1,1,0,1,0,1 @ F,0,1,1,0,1,0,1 | F,0,1,1,0,1,0,1 @ F,0,1,1,0,1,0,1 @ F,0,1,1,0,1,0,1 @ F,0,1,1,0,1,0,1 | F,0,1,1,0,1,0,1 @ F,0,1,1,0,1,0,1 @ F,0,1,1,0,1,0,1 @ F,0,1,1,0,1,0,1 | F,0,1,1,0,1,0,1 @ F,0,1,1,0,1,0,1 @ F,0,1,1,0,1,0,1 @ F,0,1,1,0,1,0,1"
       radius="1"
       unit="px"
       method="auto"
       mode="F"
       chamfer_steps="1"
       flexible="false"
       use_knot_distance="true"
       apply_no_radius="true"
       apply_with_radius="true"
       only_selected="true"
       hide_knots="false" />
  </defs>
  <sodipodi:namedview
     id="namedview9"
     pagecolor="#ffffff"
     bordercolor="#000000"
     borderopacity="0.25"
     inkscape:showpageshadow="2"
     inkscape:pageopacity="0.0"
     inkscape:pagecheckerboard="0"
     inkscape:deskcolor="#d1d1d1"
     inkscape:zoom="0.68059028"
     inkscape:cx="301.20912"
     inkscape:cy="289.45462"
     inkscape:window-width="1680"
     inkscape:window-height="961"
     inkscape:window-x="3591"
     inkscape:window-y="1104"
     inkscape:window-maximized="1"
     inkscape:current-layer="svg9" />
</svg>
