<?xml version="1.0" encoding="UTF-8" standalone="no"?>
<!-- Created with Inkscape (http://www.inkscape.org/) -->

<svg
   version="1.1"
   id="svg1"
   width="32"
   height="32"
   viewBox="0 0 32 32"
   sodipodi:docname="log-error.svg"
   inkscape:version="1.3.2 (091e20e, 2023-11-25, custom)"
   xmlns:inkscape="http://www.inkscape.org/namespaces/inkscape"
   xmlns:sodipodi="http://sodipodi.sourceforge.net/DTD/sodipodi-0.dtd"
   xmlns="http://www.w3.org/2000/svg"
   xmlns:svg="http://www.w3.org/2000/svg">
  <defs
     id="defs1">
    <inkscape:path-effect
       effect="fillet_chamfer"
       id="path-effect6"
       is_visible="true"
       lpeversion="1"
       nodesatellites_param="F,0,1,1,0,0.75,0,1 @ F,0,1,1,0,0.75,0,1 @ F,0,1,1,0,0.75,0,1 @ F,0,1,1,0,0.75,0,1 @ F,0,1,1,0,0.75,0,1 @ F,0,1,1,0,0.75,0,1 @ F,0,1,1,0,0.75,0,1 @ F,0,1,1,0,0.75,0,1 | F,0,0,1,0,0,0,1 @ F,0,0,1,0,0,0,1 @ F,0,0,1,0,0,0,1 @ F,0,0,1,0,0,0,1 @ F,0,0,1,0,0,0,1 @ F,0,0,1,0,0,0,1 @ F,0,0,1,0,0,0,1 @ F,0,0,1,0,0,0,1 @ F,0,0,1,0,0,0,1 @ F,0,0,1,0,0,0,1 @ F,0,0,1,0,0,0,1 @ F,0,0,1,0,0,0,1 @ F,0,0,1,0,0,0,1 @ F,0,0,1,0,0,0,1 @ F,0,0,1,0,0,0,1 @ F,0,0,1,0,0,0,1 @ F,0,0,1,0,0,0,1"
       radius="0.75"
       unit="px"
       method="auto"
       mode="F"
       chamfer_steps="1"
       flexible="false"
       use_knot_distance="true"
       apply_no_radius="true"
       apply_with_radius="true"
       only_selected="true"
       hide_knots="false" />
    <inkscape:path-effect
       effect="mirror_symmetry"
       start_point="0,16"
       end_point="32,16"
       center_point="16,16"
       id="path-effect5"
       is_visible="true"
       lpeversion="1.2"
       lpesatellites=""
       mode="horizontal"
       discard_orig_path="false"
       fuse_paths="false"
       oposite_fuse="false"
       split_items="false"
       split_open="false"
       link_styles="false" />
  </defs>
  <sodipodi:namedview
     id="namedview1"
     pagecolor="#ffffff"
     bordercolor="#000000"
     borderopacity="0.25"
     inkscape:showpageshadow="2"
     inkscape:pageopacity="0.0"
     inkscape:pagecheckerboard="0"
     inkscape:deskcolor="#d1d1d1"
     inkscape:zoom="16"
     inkscape:cx="13.1875"
     inkscape:cy="12.8125"
     inkscape:window-width="1920"
     inkscape:window-height="991"
     inkscape:window-x="1671"
     inkscape:window-y="1071"
     inkscape:window-maximized="1"
     inkscape:current-layer="svg1" />
  <path
     id="path4"
     style="fill-rule:evenodd;stroke-width:2.28389"
     d="m -21.907585,-3.886829 -1.42919,1.4191058 a 1.8016334,1.8016334 112.60142 0 0 -0.532204,1.2784493 v 2.0083196 a 1.8197639,1.8197639 67.601415 0 0 0.528449,1.2822042 l 1.419107,1.4291893 a 1.8016339,1.8016339 22.601415 0 0 1.278449,0.5322042 h 2.008319 a 1.8197644,1.8197644 157.60142 0 0 1.282204,-0.5284493 l 1.42919,-1.4191058 a 1.8016334,1.8016334 112.60142 0 0 0.532204,-1.2784493 v -2.0083196 a 1.8197645,1.8197645 67.601421 0 0 -0.528449,-1.2822043 l -1.419106,-1.4291891 a 1.8016334,1.8016334 22.601421 0 0 -1.278449,-0.5322043 h -2.00832 a 1.8197644,1.8197644 157.60142 0 0 -1.282204,0.5284493 z m 0.270891,0.9090304 c 0.203318,-9.38e-5 0.406756,0.077689 0.561952,0.232853 l 1.444724,1.444724 1.444724,-1.444724 c 0.310392,-0.3103282 0.813528,-0.3103094 1.123904,0 0.31031,0.3103766 0.310841,0.8135126 5.18e-4,1.1239042 l -1.445242,1.44472394 1.445242,1.44524136 c 0.310323,0.3103876 0.309797,0.8130101 -5.18e-4,1.1233868 -0.310377,0.3103096 -0.813517,0.3108363 -1.123904,5.174e-4 l -1.444724,-1.44524139 -1.444724,1.44524139 c -0.310387,0.3103237 -0.813528,0.3097972 -1.123904,-5.174e-4 -0.31031,-0.3103767 -0.310842,-0.8129992 -5.18e-4,-1.1233868 l 1.445242,-1.44524136 -1.445242,-1.44472394 c -0.310328,-0.3103914 -0.309792,-0.8135276 5.18e-4,-1.1239042 0.155188,-0.1551548 0.358634,-0.2327593 0.561952,-0.232853 z"
     transform="matrix(3.77451,0,0,3.77451,90.093699,16.665512)"
     inkscape:path-effect="#path-effect6"
     inkscape:original-d="M -21.375381 -4.4152783 L -23.868979 -1.9392739 L -23.868979 1.5690457 L -21.392974 4.0626434 L -17.884655 4.0626434 L -15.391057 1.586639 L -15.391057 -1.9216806 L -17.867061 -4.4152783 L -21.375381 -4.4152783 z M -21.636694 -2.9777986 C -21.433376 -2.9778924 -21.229938 -2.9001096 -21.074742 -2.7449456 L -19.630018 -1.3002216 L -18.185294 -2.7449456 C -17.874902 -3.0552738 -17.371766 -3.055255 -17.06139 -2.7449456 C -16.75108 -2.434569 -16.750549 -1.931433 -17.060872 -1.6210414 L -18.506114 -0.17631746 L -17.060872 1.2689239 C -16.750549 1.5793115 -16.751075 2.081934 -17.06139 2.3923107 C -17.371767 2.7026203 -17.874907 2.703147 -18.185294 2.3928281 L -19.630018 0.94758671 L -21.074742 2.3928281 C -21.385129 2.7031518 -21.88827 2.7026253 -22.198646 2.3923107 C -22.508956 2.081934 -22.509488 1.5793115 -22.199164 1.2689239 L -20.753922 -0.17631746 L -22.199164 -1.6210414 C -22.509492 -1.9314328 -22.508956 -2.434569 -22.198646 -2.7449456 C -22.043458 -2.9001004 -21.840012 -2.9777049 -21.636694 -2.9777986 z " />
</svg>
