<?xml version="1.0" encoding="UTF-8" standalone="no"?>
<!-- Created with Inkscape (http://www.inkscape.org/) -->

<svg
   version="1.1"
   id="svg1"
   width="32"
   height="32"
   viewBox="0 0 32 32"
   sodipodi:docname="log-trace.svg"
   inkscape:version="1.3.2 (091e20e, 2023-11-25, custom)"
   xmlns:inkscape="http://www.inkscape.org/namespaces/inkscape"
   xmlns:sodipodi="http://sodipodi.sourceforge.net/DTD/sodipodi-0.dtd"
   xmlns="http://www.w3.org/2000/svg"
   xmlns:svg="http://www.w3.org/2000/svg">
  <defs
     id="defs1">
    <inkscape:path-effect
       effect="fillet_chamfer"
       id="path-effect3"
       is_visible="true"
       lpeversion="1"
       nodesatellites_param="F,0,0,1,0,0,0,1 @ F,0,0,1,0,0,0,1 @ F,0,0,1,0,0,0,1 @ F,0,0,1,0,0,0,1 | F,0,1,1,0,6,0,1 @ F,0,0,1,0,5,0,1 @ F,0,0,1,0,5,0,1 | F,0,0,1,0,5,0,1 @ F,0,0,1,0,5,0,1 @ F,0,1,1,0,6,0,1"
       radius="6"
       unit="px"
       method="auto"
       mode="F"
       chamfer_steps="1"
       flexible="false"
       use_knot_distance="true"
       apply_no_radius="true"
       apply_with_radius="true"
       only_selected="true"
       hide_knots="false" />
    <inkscape:path-effect
       effect="mirror_symmetry"
       start_point="3.2,16"
       end_point="28.8,16"
       center_point="16,16"
       id="path-effect2"
       is_visible="true"
       lpeversion="1.2"
       lpesatellites=""
       mode="horizontal"
       discard_orig_path="false"
       fuse_paths="false"
       oposite_fuse="false"
       split_items="false"
       split_open="false"
       link_styles="false" />
  </defs>
  <sodipodi:namedview
     id="namedview1"
     pagecolor="#ffffff"
     bordercolor="#000000"
     borderopacity="0.25"
     inkscape:showpageshadow="2"
     inkscape:pageopacity="0.0"
     inkscape:pagecheckerboard="0"
     inkscape:deskcolor="#d1d1d1"
     inkscape:zoom="17.014757"
     inkscape:cx="13.635223"
     inkscape:cy="18.924749"
     inkscape:window-width="1920"
     inkscape:window-height="991"
     inkscape:window-x="1671"
     inkscape:window-y="869"
     inkscape:window-maximized="1"
     inkscape:current-layer="svg1" />
  <path
     id="path1"
     style="fill:#000000;fill-rule:evenodd;stroke-width:1.74504;-inkscape-stroke:none"
     d="M 16,0 C 7.1634616,0 0,7.1634616 0,16 0,24.836538 7.1634616,32 16,32 24.836538,32 32,24.836538 32,16 32,7.1634616 24.836538,0 16,0 Z m 10.576731,9.0384875 -2.495332,6.9377445 a 3.1720181,3.1720181 167.39119 0 1 -5.227777,1.16939 l -3.999244,-3.999245 a 3.1720181,3.1720181 102.60881 0 1 1.169391,-5.2277762 l 6.937744,-2.4953315 a 2.8256398,2.8256398 45.000001 0 1 3.615218,3.6152182 z m -13.430354,5.8158895 3.999245,3.999245 a 3.1720182,3.1720182 102.60881 0 1 -1.16939,5.227777 L 9.0384875,26.576731 A 2.8256399,2.8256399 44.999999 0 1 5.4232692,22.961513 l 2.4953317,-6.937745 a 3.1720179,3.1720179 167.39119 0 1 5.2277761,-1.169391 z"
     inkscape:path-effect="#path-effect3"
     inkscape:original-d="M 16,0 C 7.1634616,0 0,7.1634616 0,16 0,24.836538 7.1634616,32 16,32 24.836538,32 32,24.836538 32,16 32,7.1634616 24.836538,0 16,0 Z M 28.607422,3.3925781 22.389156,20.681156 11.318844,9.6108435 Z M 9.6108435,11.318843 20.681156,22.389156 3.3925781,28.607422 Z"
     sodipodi:nodetypes="ssssscccccccc" />
</svg>
