<?xml version="1.0" encoding="UTF-8" standalone="no"?>
<!-- Created with Inkscape (http://www.inkscape.org/) -->

<svg
   version="1.1"
   id="svg1"
   width="32"
   height="32"
   viewBox="0 0 32 32"
   sodipodi:docname="log-end.svg"
   inkscape:version="1.3.2 (091e20e, 2023-11-25, custom)"
   xmlns:inkscape="http://www.inkscape.org/namespaces/inkscape"
   xmlns:sodipodi="http://sodipodi.sourceforge.net/DTD/sodipodi-0.dtd"
   xmlns="http://www.w3.org/2000/svg"
   xmlns:svg="http://www.w3.org/2000/svg">
  <defs
     id="defs1">
    <inkscape:path-effect
       effect="mirror_symmetry"
       start_point="13,1.4285714"
       end_point="13,24.285714"
       center_point="13,12.857143"
       id="path-effect4"
       is_visible="true"
       lpeversion="1.2"
       lpesatellites=""
       mode="vertical"
       discard_orig_path="false"
       fuse_paths="false"
       oposite_fuse="false"
       split_items="false"
       split_open="false"
       link_styles="false" />
    <inkscape:path-effect
       effect="fillet_chamfer"
       id="path-effect3"
       is_visible="true"
       lpeversion="1"
       nodesatellites_param="F,0,0,1,0,1.5,0,1 @ F,0,0,1,0,1.5,0,1 @ F,0,0,1,0,1.5,0,1 @ F,0,0,1,0,1.5,0,1"
       radius="1.5"
       unit="px"
       method="auto"
       mode="F"
       chamfer_steps="1"
       flexible="false"
       use_knot_distance="true"
       apply_no_radius="true"
       apply_with_radius="true"
       only_selected="false"
       hide_knots="false" />
    <inkscape:path-effect
       effect="fillet_chamfer"
       id="path-effect2"
       is_visible="true"
       lpeversion="1"
       nodesatellites_param="F,0,0,1,0,1,0,1 @ F,0,0,1,0,1,0,1 @ F,0,0,1,0,1,0,1 @ F,0,0,1,0,1,0,1 | F,0,1,1,0,0,0,1 @ F,0,0,1,0,1,0,1 @ F,0,0,1,0,1,0,1 @ F,0,1,1,0,0,0,1 | F,0,0,1,0,1,0,1 @ F,0,0,1,0,1,0,1 @ F,0,0,1,0,1,0,1 @ F,0,0,1,0,1,0,1 | F,0,0,1,0,1,0,1 @ F,0,0,1,0,1,0,1 @ F,0,0,1,0,1,0,1 @ F,0,0,1,0,1,0,1"
       radius="0"
       unit="px"
       method="auto"
       mode="F"
       chamfer_steps="1"
       flexible="false"
       use_knot_distance="true"
       apply_no_radius="true"
       apply_with_radius="true"
       only_selected="true"
       hide_knots="false" />
    <inkscape:path-effect
       effect="fillet_chamfer"
       id="path-effect1"
       is_visible="true"
       lpeversion="1"
       nodesatellites_param="F,0,0,1,0,6,0,1 @ F,0,0,1,0,6,0,1 @ F,0,0,1,0,6,0,1 @ F,0,0,1,0,6,0,1"
       radius="6"
       unit="px"
       method="auto"
       mode="F"
       chamfer_steps="1"
       flexible="false"
       use_knot_distance="true"
       apply_no_radius="true"
       apply_with_radius="true"
       only_selected="false"
       hide_knots="false" />
    <inkscape:path-effect
       effect="fillet_chamfer"
       id="path-effect47"
       is_visible="true"
       lpeversion="1"
       nodesatellites_param="F,0,0,1,0,0,0,1 @ F,0,0,1,0,0,0,1 @ F,0,0,1,0,0,0,1 @ F,0,0,1,0,0,0,1"
       radius="0"
       unit="px"
       method="auto"
       mode="F"
       chamfer_steps="1"
       flexible="false"
       use_knot_distance="true"
       apply_no_radius="true"
       apply_with_radius="true"
       only_selected="false"
       hide_knots="false" />
    <inkscape:path-effect
       effect="tiling"
       id="path-effect46"
       is_visible="true"
       lpeversion="1"
       unit="px"
       seed="1;1"
       lpesatellites=""
       num_rows="3"
       num_cols="2"
       gapx="8.34"
       gapy="0.5"
       offset="50"
       offset_type="false"
       scale="0"
       rotate="0"
       mirrorrowsx="false"
       mirrorrowsy="false"
       mirrorcolsx="false"
       mirrorcolsy="false"
       mirrortrans="false"
       shrink_interp="false"
       split_items="false"
       link_styles="false"
       interpolate_scalex="false"
       interpolate_scaley="true"
       interpolate_rotatex="false"
       interpolate_rotatey="true"
       random_scale="false"
       random_rotate="false"
       random_gap_y="false"
       random_gap_x="false"
       transformorigin="matrix(1.4,0,0,1.4,-2,-2)" />
  </defs>
  <sodipodi:namedview
     id="namedview1"
     pagecolor="#ffffff"
     bordercolor="#000000"
     borderopacity="0.25"
     inkscape:showpageshadow="2"
     inkscape:pageopacity="0.0"
     inkscape:pagecheckerboard="0"
     inkscape:deskcolor="#d1d1d1"
     inkscape:zoom="17.014757"
     inkscape:cx="7.8755165"
     inkscape:cy="19.923881"
     inkscape:window-width="1920"
     inkscape:window-height="991"
     inkscape:window-x="1671"
     inkscape:window-y="1071"
     inkscape:window-maximized="1"
     inkscape:current-layer="svg1" />
  <path
     id="rect1"
     style="fill:#000000;fill-rule:evenodd;stroke-width:0"
     d="M 6 3.1600001 A 6 6 0 0 0 0 9.1599416 L 0 22.840059 A 6 6 0 0 0 6 28.84 L 26 28.84 A 6 6 0 0 0 32 22.840059 L 32 9.1599416 A 6 6 0 0 0 26 3.1600001 L 6 3.1600001 z M 6.2597656 4.2300001 L 10.460938 4.2300001 C 11.234134 4.2300001 11.859375 4.9010973 11.859375 5.7284181 L 11.859375 10.221582 C 11.859375 11.048903 11.234134 11.72 10.460938 11.72 L 6.2597656 11.72 C 5.4865687 11.72 4.859375 11.048903 4.859375 10.221582 L 4.859375 5.7284181 C 4.859375 4.9010973 5.4865687 4.2300001 6.2597656 4.2300001 z M 21.539062 4.2300001 L 25.740234 4.2300001 C 26.513433 4.2300001 27.140625 4.9010973 27.140625 5.7284181 L 27.140625 10.221582 C 27.140625 11.048903 26.513433 11.72 25.740234 11.72 L 21.539062 11.72 C 20.765866 11.72 20.140625 11.048903 20.140625 10.221582 L 20.140625 5.7284181 C 20.140625 4.9010973 20.765866 4.2300001 21.539062 4.2300001 z M 1 12.255 L 2.7890625 12.255 C 3.5622595 12.255 4.1894531 12.926096 4.1894531 13.753418 L 4.1894531 18.246582 C 4.1894531 19.073903 3.5622595 19.745 2.7890625 19.745 L 1 19.745 L 1 12.255 z M 13.929688 12.255 L 18.070312 12.255 C 18.843509 12.255 19.470703 12.926096 19.470703 13.753418 L 19.470703 18.246582 C 19.470703 19.073903 18.843509 19.745 18.070312 19.745 L 13.929688 19.745 C 13.156491 19.745 12.529297 19.073903 12.529297 18.246582 L 12.529297 13.753418 C 12.529297 12.926096 13.156491 12.255 13.929688 12.255 z M 29.210938 12.255 L 31 12.255 L 31 19.745 L 29.210938 19.745 C 28.437739 19.745 27.810547 19.073903 27.810547 18.246582 L 27.810547 13.753418 C 27.810547 12.926096 28.437739 12.255 29.210938 12.255 z M 6.2597656 20.28 L 10.460938 20.28 C 11.234134 20.28 11.859375 20.951096 11.859375 21.778418 L 11.859375 26.271582 C 11.859375 27.098903 11.234134 27.77 10.460938 27.77 L 6.2597656 27.77 C 5.4865687 27.77 4.859375 27.098903 4.859375 26.271582 L 4.859375 21.778418 C 4.859375 20.951096 5.4865687 20.28 6.2597656 20.28 z M 21.539062 20.28 L 25.740234 20.28 C 26.513433 20.28 27.140625 20.951096 27.140625 21.778418 L 27.140625 26.271582 C 27.140625 27.098903 26.513433 27.77 25.740234 27.77 L 21.539062 27.77 C 20.765866 27.77 20.140625 27.098903 20.140625 26.271582 L 20.140625 21.778418 C 20.140625 20.951096 20.765866 20.28 21.539062 20.28 z "
     transform="matrix(1,0,0,0.93457943,0,1.0467289)" />
</svg>
