<?xml version="1.0" encoding="UTF-8" standalone="no"?>
<!-- Uploaded to: SVG Repo, www.svgrepo.com, Generator: SVG Repo Mixer Tools -->

<svg
   width="800px"
   height="800px"
   viewBox="0 0 512 512"
   version="1.1"
   id="svg1"
   sodipodi:docname="log-warning2.svg"
   inkscape:version="1.3.2 (091e20e, 2023-11-25, custom)"
   xmlns:inkscape="http://www.inkscape.org/namespaces/inkscape"
   xmlns:sodipodi="http://sodipodi.sourceforge.net/DTD/sodipodi-0.dtd"
   xmlns="http://www.w3.org/2000/svg"
   xmlns:svg="http://www.w3.org/2000/svg">
  <defs
     id="defs1">
    <inkscape:path-effect
       effect="fillet_chamfer"
       id="path-effect2"
       is_visible="true"
       lpeversion="1"
       nodesatellites_param="F,0,0,1,0,128,0,1 @ F,0,0,1,0,128,0,1 @ F,0,0,1,0,128,0,1"
       radius="128"
       unit="px"
       method="auto"
       mode="F"
       chamfer_steps="1"
       flexible="false"
       use_knot_distance="true"
       apply_no_radius="true"
       apply_with_radius="true"
       only_selected="false"
       hide_knots="false" />
    <inkscape:path-effect
       effect="fillet_chamfer"
       id="path-effect1"
       is_visible="true"
       lpeversion="1"
       nodesatellites_param="F,0,0,1,0,0,0,1 @ F,0,0,1,0,0,0,1 @ F,0,0,1,0,0,0,1 @ F,0,0,1,0,0,0,1 | F,0,1,1,0,61,0,1 @ F,0,1,1,0,61,0,1 @ F,0,1,1,0,61,0,1 @ F,0,1,1,0,61,0,1"
       radius="61"
       unit="px"
       method="auto"
       mode="F"
       chamfer_steps="1"
       flexible="false"
       use_knot_distance="true"
       apply_no_radius="true"
       apply_with_radius="true"
       only_selected="true"
       hide_knots="false" />
  </defs>
  <sodipodi:namedview
     id="namedview1"
     pagecolor="#505050"
     bordercolor="#eeeeee"
     borderopacity="1"
     inkscape:showpageshadow="0"
     inkscape:pageopacity="0"
     inkscape:pagecheckerboard="0"
     inkscape:deskcolor="#505050"
     inkscape:zoom="0.5497715"
     inkscape:cx="172.79906"
     inkscape:cy="554.77594"
     inkscape:window-width="1920"
     inkscape:window-height="991"
     inkscape:window-x="1671"
     inkscape:window-y="1071"
     inkscape:window-maximized="1"
     inkscape:current-layer="svg1" />
  <title
     id="title1">about-filled</title>
  <path
     id="path1"
     style="opacity:1;fill:#000000;fill-rule:evenodd;stroke-width:1.024;-inkscape-stroke:none"
     inkscape:transform-center-x="-2.2367291e-06"
     inkscape:transform-center-y="-96.19324"
     d="M 71.011325 153.58077 A 73.900834 73.900834 0 0 0 7.01173 190.53096 L -98.431203 373.16269 A 73.900834 73.900834 0 0 0 -34.430731 484.01411 L 176.45338 484.01411 A 73.900834 73.900834 0 0 0 240.45385 373.16269 L 135.01092 190.53096 A 73.900834 73.900834 0 0 0 71.011325 153.58077 z M 70.703079 171.7358 L 71.319571 171.7358 A 42.734118 42.734186 0 0 1 114.05369 214.46998 L 114.05369 310.13852 A 42.734118 42.734186 0 0 1 71.319571 352.8727 L 70.703079 352.8727 A 42.734118 42.734186 0 0 1 27.968962 310.13852 L 27.968962 214.46998 A 42.734118 42.734186 0 0 1 70.703079 171.7358 z M 71.011325 379.77422 A 43.042363 43.042432 0 0 1 114.05369 422.81666 A 43.042363 43.042432 0 0 1 71.011325 465.85909 A 43.042363 43.042432 0 0 1 27.968962 422.81666 A 43.042363 43.042432 0 0 1 71.011325 379.77422 z "
     transform="matrix(1.4274309,0,0,1.4274286,154.63624,-199.06059)" />
</svg>
