<?xml version="1.0" encoding="iso-8859-1"?>
<!-- Uploaded to: SVG Repo, www.svgrepo.com, Generator: SVG Repo Mixer Tools -->
<!DOCTYPE svg PUBLIC "-//W3C//DTD SVG 1.1//EN" "http://www.w3.org/Graphics/SVG/1.1/DTD/svg11.dtd">
<svg fill="#000000" height="800px" width="800px" version="1.1" id="Capa_1" xmlns="http://www.w3.org/2000/svg" xmlns:xlink="http://www.w3.org/1999/xlink" 
	 viewBox="0 0 494.369 494.369" xml:space="preserve">
<path id="XMLID_140_" d="M479.869,376.082h-19.806V255.094c0-13.715-11.12-24.844-24.845-24.844H272.03V118.285h19.806
	c8.006,0,14.493-6.484,14.493-14.492V14.492C306.329,6.486,299.843,0,291.836,0h-89.301c-8.007,0-14.493,6.486-14.493,14.492v89.301
	c0,8.008,6.486,14.492,14.493,14.492h19.806V230.25H59.151c-13.724,0-24.845,11.129-24.845,24.844v120.988H14.5
	c-8.006,0-14.493,6.486-14.493,14.492v89.303c0,8.006,6.486,14.492,14.493,14.492h89.302c8.006,0,14.493-6.486,14.493-14.492
	v-89.303c0-8.006-6.486-14.492-14.493-14.492H83.996v-96.145h138.345v96.145h-19.806c-8.007,0-14.493,6.486-14.493,14.492v89.303
	c0,8.006,6.486,14.492,14.493,14.492h89.301c8.006,0,14.493-6.486,14.493-14.492v-89.303c0-8.006-6.486-14.492-14.493-14.492H272.03
	v-96.145h138.344v96.145h-19.807c-8.007,0-14.492,6.486-14.492,14.492v89.303c0,8.006,6.485,14.492,14.492,14.492h89.301
	c8.007,0,14.493-6.486,14.493-14.492v-89.303C494.361,382.568,487.875,376.082,479.869,376.082z"/>
</svg>