<?xml version="1.0" encoding="UTF-8" standalone="no"?>
<!-- Uploaded to: SVG Repo, www.svgrepo.com, Generator: SVG Repo Mixer Tools -->

<svg
   width="800px"
   height="800px"
   viewBox="0 0 16 16"
   fill="none"
   version="1.1"
   id="svg9"
   sodipodi:docname="sun.svg"
   inkscape:version="1.3.2 (091e20e, 2023-11-25, custom)"
   xmlns:inkscape="http://www.inkscape.org/namespaces/inkscape"
   xmlns:sodipodi="http://sodipodi.sourceforge.net/DTD/sodipodi-0.dtd"
   xmlns="http://www.w3.org/2000/svg"
   xmlns:svg="http://www.w3.org/2000/svg">
  <defs
     id="defs9">
    <inkscape:path-effect
       effect="fillet_chamfer"
       id="path-effect9"
       is_visible="true"
       lpeversion="1"
       nodesatellites_param="F,0,1,1,0,1,0,1 @ F,0,1,1,0,1,0,1 @ F,0,1,1,0,1,0,1 @ F,0,1,1,0,1,0,1 | F,0,1,1,0,1,0,1 @ F,0,1,1,0,1,0,1 @ F,0,1,1,0,1,0,1 @ F,0,1,1,0,1,0,1 | F,0,1,1,0,1,0,1 @ F,0,1,1,0,1,0,1 @ F,0,1,1,0,1,0,1 @ F,0,1,1,0,1,0,1 | F,0,0,1,0,0,0,1 @ F,0,0,1,0,0,0,1 @ F,0,0,1,0,0,0,1 @ F,0,0,1,0,0,0,1 | F,0,1,1,0,1,0,1 @ F,0,1,1,0,1,0,1 @ F,0,1,1,0,1,0,1 @ F,0,1,1,0,1,0,1 | F,0,1,1,0,1,0,1 @ F,0,1,1,0,1,0,1 @ F,0,1,1,0,1,0,1 @ F,0,1,1,0,1,0,1 | F,0,1,1,0,1,0,1 @ F,0,1,1,0,1,0,1 @ F,0,1,1,0,1,0,1 @ F,0,1,1,0,1,0,1 | F,0,1,1,0,1,0,1 @ F,0,1,1,0,1,0,1 @ F,0,1,1,0,1,0,1 @ F,0,1,1,0,1,0,1 | F,0,1,1,0,1,0,1 @ F,0,1,1,0,1,0,1 @ F,0,1,1,0,1,0,1 @ F,0,1,1,0,1,0,1"
       radius="1"
       unit="px"
       method="auto"
       mode="F"
       chamfer_steps="1"
       flexible="false"
       use_knot_distance="true"
       apply_no_radius="true"
       apply_with_radius="true"
       only_selected="true"
       hide_knots="false" />
  </defs>
  <sodipodi:namedview
     id="namedview9"
     pagecolor="#ffffff"
     bordercolor="#000000"
     borderopacity="0.25"
     inkscape:showpageshadow="2"
     inkscape:pageopacity="0.0"
     inkscape:pagecheckerboard="0"
     inkscape:deskcolor="#d1d1d1"
     inkscape:zoom="0.48125"
     inkscape:cx="110.12987"
     inkscape:cy="679.48052"
     inkscape:window-width="1920"
     inkscape:window-height="991"
     inkscape:window-x="1671"
     inkscape:window-y="1071"
     inkscape:window-maximized="1"
     inkscape:current-layer="svg9" />
  <path
     id="path1"
     d="M 7,1 V 2 A 1,1 45 0 0 8,3 1,1 135 0 0 9,2 V 1 A 1,1 45 0 0 8,0 1,1 135 0 0 7,1 Z m -4.6568724,1.3431224 -5.2e-6,5.2e-6 a 1,1 90 0 0 0,1.4142136 l 0.7071145,0.7071145 a 1,1 0 0 0 1.4142136,0 l 5.2e-6,-5.2e-6 a 1,1 90 0 0 0,-1.4142136 L 3.7573412,2.3431224 a 1,1 0 0 0 -1.4142136,0 z m 9.8994524,3.91e-5 -0.707075,0.7070754 a 0.99999993,0.99999993 89.999998 0 0 0,1.4142135 l 5e-6,5.4e-6 a 1.0000184,1.0000184 5.2398219e-4 0 0 1.414227,1.29e-5 l 0.707127,-0.7071015 a 0.99995396,0.99995396 89.999733 0 0 -6e-6,-1.414181 l -4.5e-5,-4.43e-5 a 1.0000277,1.0000277 179.99921 0 0 -1.414233,1.96e-5 z M 8,5 C 6.3431517,5 5,6.3431517 5,8 5,9.6568483 6.3431517,11 8,11 9.6568483,11 11,9.6568483 11,8 11,6.3431517 9.6568483,5 8,5 Z M 0,8 A 1,1 45 0 0 1,9 H 2 A 1,1 135 0 0 3,8 1,1 45 0 0 2,7 H 1 A 1,1 135 0 0 0,8 Z m 13,0 a 1,1 45 0 0 1,1 h 1 A 1,1 135 0 0 16,8 1,1 45 0 0 15,7 h -1 a 1,1 135 0 0 -1,1 z m -9.9497499,3.535518 -0.7071409,0.707167 a 1.0000045,1.0000045 89.999064 0 0 2.31e-5,1.414217 0.99999454,0.99999454 179.99874 0 0 1.4142024,-3.1e-5 L 4.4644622,12.94973 a 1.0000092,1.0000092 89.999739 0 0 -6.4e-6,-1.41422 l -5.4e-6,-5e-6 a 0.99998133,0.99998133 179.99947 0 0 -1.4142003,1.3e-5 z m 8.4852599,-1.3e-5 -5e-6,5e-6 a 1.0000184,1.0000184 90.000527 0 0 -1.3e-5,1.414227 l 0.707101,0.707127 a 0.99998162,0.99998162 5.2668314e-4 0 0 1.414201,1.3e-5 l 8.3e-5,-8.3e-5 a 0.99998162,0.99998162 89.999473 0 0 -1.3e-5,-1.414201 l -0.707127,-0.707101 a 1.0000184,1.0000184 179.99947 0 0 -1.414227,1.3e-5 z M 7,14 v 1 a 1,1 45 0 0 1,1 1,1 135 0 0 1,-1 V 14 A 1,1 45 0 0 8,13 1,1 135 0 0 7,14 Z"
     style="fill:#000000"
     inkscape:original-d="M 7 0 L 7 3 L 9 3 L 9 0 L 7 0 z M 3.0502344 1.6360156 L 1.6360156 3.0502344 L 3.7573437 5.1715625 L 5.1715625 3.7573437 L 3.0502344 1.6360156 z M 12.949687 1.6360547 L 10.828398 3.7573437 L 12.242617 5.1715625 L 14.363984 3.0502734 L 12.949687 1.6360547 z M 8 5 C 6.3431517 5 5 6.3431517 5 8 C 5 9.6568483 6.3431517 11 8 11 C 9.6568483 11 11 9.6568483 11 8 C 11 6.3431517 9.6568483 5 8 5 z M 0 7 L 0 9 L 3 9 L 3 7 L 0 7 z M 13 7 L 13 9 L 16 9 L 16 7 L 13 7 z M 3.7573437 10.828398 L 1.6360156 12.949805 L 3.0502344 14.363984 L 5.1715625 12.242617 L 3.7573437 10.828398 z M 12.242617 10.828398 L 10.828398 12.242617 L 12.949687 14.363984 L 14.363984 12.949687 L 12.242617 10.828398 z M 7 13 L 7 16 L 9 16 L 9 13 L 7 13 z "
     inkscape:path-effect="#path-effect9" />
</svg>
