<?xml version="1.0" encoding="UTF-8" standalone="no"?>
<!-- Uploaded to: SVG Repo, www.svgrepo.com, Generator: SVG Repo Mixer Tools -->

<svg
   fill="#000000"
   height="800px"
   width="800px"
   version="1.1"
   id="Layer_1"
   viewBox="0 0 330 330"
   xml:space="preserve"
   sodipodi:docname="switches.svg"
   inkscape:version="1.3.2 (091e20e, 2023-11-25, custom)"
   xmlns:inkscape="http://www.inkscape.org/namespaces/inkscape"
   xmlns:sodipodi="http://sodipodi.sourceforge.net/DTD/sodipodi-0.dtd"
   xmlns="http://www.w3.org/2000/svg"
   xmlns:svg="http://www.w3.org/2000/svg"><defs
   id="defs1"><inkscape:path-effect
     effect="mirror_symmetry"
     start_point="0,198"
     end_point="396,198"
     center_point="198,198"
     id="path-effect1"
     is_visible="true"
     lpeversion="1.2"
     lpesatellites=""
     mode="horizontal"
     discard_orig_path="false"
     fuse_paths="false"
     oposite_fuse="false"
     split_items="false"
     split_open="false"
     link_styles="false" /></defs><sodipodi:namedview
   id="namedview1"
   pagecolor="#ffffff"
   bordercolor="#000000"
   borderopacity="0.25"
   inkscape:showpageshadow="2"
   inkscape:pageopacity="0.0"
   inkscape:pagecheckerboard="0"
   inkscape:deskcolor="#d1d1d1"
   inkscape:zoom="0.68059028"
   inkscape:cx="411.40758"
   inkscape:cy="365.85888"
   inkscape:window-width="1920"
   inkscape:window-height="991"
   inkscape:window-x="1671"
   inkscape:window-y="-9"
   inkscape:window-maximized="1"
   inkscape:current-layer="Layer_1" />
<path
   id="XMLID_2_"
   style="stroke-width:0.88"
   d="M 79.2 0 C 35.529164 0 -9.3791548e-15 35.529164 0 79.2 C 0 122.87084 35.529164 158.4 79.2 158.4 L 316.8 158.4 C 360.47084 158.4 396 122.87084 396 79.2 C 396 35.529164 360.47084 -9.3791548e-15 316.8 0 L 79.2 0 z M 316.8 15.84 C 351.73667 15.84 380.16 44.263331 380.16 79.2 C 380.16 114.13667 351.73667 142.56 316.8 142.56 C 281.86333 142.56 253.44 114.13667 253.44 79.2 C 253.44 44.263331 281.86333 15.84 316.8 15.84 z M 79.2 237.6 C 35.529164 237.6 0 273.12916 0 316.8 C -9.3791548e-15 360.47084 35.529164 396 79.2 396 L 316.8 396 C 360.47084 396 396 360.47084 396 316.8 C 396 273.12916 360.47084 237.6 316.8 237.6 L 79.2 237.6 z M 79.2 253.44 C 114.13667 253.44 142.56 281.86333 142.56 316.8 C 142.56 351.73667 114.13667 380.16 79.2 380.16 C 44.263331 380.16 15.84 351.73667 15.84 316.8 C 15.84 281.86333 44.263331 253.44 79.2 253.44 z "
   transform="scale(0.83333333)" />
</svg>
