<?xml version="1.0" encoding="UTF-8" standalone="no"?>
<!-- Uploaded to: SVG Repo, www.svgrepo.com, Generator: SVG Repo Mixer Tools -->

<svg
   width="800px"
   height="800px"
   viewBox="0 0 48 48"
   version="1.1"
   id="svg2"
   sodipodi:docname="trashcan.svg"
   inkscape:version="1.3.2 (091e20e, 2023-11-25, custom)"
   xmlns:inkscape="http://www.inkscape.org/namespaces/inkscape"
   xmlns:sodipodi="http://sodipodi.sourceforge.net/DTD/sodipodi-0.dtd"
   xmlns="http://www.w3.org/2000/svg"
   xmlns:svg="http://www.w3.org/2000/svg">
  <defs
     id="defs2" />
  <sodipodi:namedview
     id="namedview2"
     pagecolor="#ffffff"
     bordercolor="#000000"
     borderopacity="0.25"
     inkscape:showpageshadow="2"
     inkscape:pageopacity="0.0"
     inkscape:pagecheckerboard="0"
     inkscape:deskcolor="#d1d1d1"
     inkscape:zoom="0.9625"
     inkscape:cx="400"
     inkscape:cy="400"
     inkscape:window-width="1680"
     inkscape:window-height="961"
     inkscape:window-x="3591"
     inkscape:window-y="1104"
     inkscape:window-maximized="1"
     inkscape:current-layer="svg2" />
  <title
     id="title1">trash-solid</title>
  <path
     id="path1"
     d="M 18.28567,0 A 2.2857143,2.2857143 0 0 0 16.000045,2.285759 V 4.571384 H 4.5713832 A 1.9428572,1.9428572 0 0 0 2.9714725,5.2570983 2.6285714,2.6285714 0 0 0 2.2857582,7.085759 2.4000001,2.4000001 0 0 0 4.6857583,9.142902 H 43.428617 a 1.9428572,1.9428572 0 0 0 1.599911,-0.685715 2.6285714,2.6285714 0 0 0 0.685714,-1.82866 2.4000001,2.4000001 0 0 0 -2.4,-2.057143 H 31.999956 V 2.285759 A 2.2857143,2.2857143 0 0 0 29.71433,0 Z M 9.371383,13.714286 a 2.2857143,2.2857143 0 0 0 -2.2856247,2.514241 l 2.9713397,29.714331 a 2.2857143,2.2857143 0 0 0 2.285759,2.057143 h 23.314286 a 2.2857143,2.2857143 0 0 0 2.285759,-2.057143 l 2.97134,-29.714331 a 2.2857143,2.2857143 0 0 0 -2.285625,-2.514241 z"
     style="stroke-width:1.14286" />
</svg>
