<?xml version="1.0" encoding="UTF-8" standalone="no"?>
<!-- Uploaded to: SVG Repo, www.svgrepo.com, Generator: SVG Repo Mixer Tools -->

<svg
   width="800px"
   height="800px"
   viewBox="0 0 48 48"
   version="1.1"
   id="svg2"
   sodipodi:docname="trashcan-open.svg"
   inkscape:version="1.3.2 (091e20e, 2023-11-25, custom)"
   xmlns:inkscape="http://www.inkscape.org/namespaces/inkscape"
   xmlns:sodipodi="http://sodipodi.sourceforge.net/DTD/sodipodi-0.dtd"
   xmlns="http://www.w3.org/2000/svg"
   xmlns:svg="http://www.w3.org/2000/svg">
  <defs
     id="defs2" />
  <sodipodi:namedview
     id="namedview2"
     pagecolor="#ffffff"
     bordercolor="#000000"
     borderopacity="0.25"
     inkscape:showpageshadow="2"
     inkscape:pageopacity="0.0"
     inkscape:pagecheckerboard="0"
     inkscape:deskcolor="#d1d1d1"
     inkscape:zoom="0.68059028"
     inkscape:cx="355.5737"
     inkscape:cy="277.70012"
     inkscape:window-width="1680"
     inkscape:window-height="961"
     inkscape:window-x="3591"
     inkscape:window-y="1104"
     inkscape:window-maximized="1"
     inkscape:current-layer="svg2" />
  <title
     id="title1">trash-solid</title>
  <path
     style="stroke-width:1.14286"
     d="m 9.371383,13.714286 a 2.2857143,2.2857143 0 0 0 -2.2856247,2.514241 l 2.9713397,29.714331 a 2.2857143,2.2857143 0 0 0 2.285759,2.057143 h 23.314286 a 2.2857143,2.2857143 0 0 0 2.285759,-2.057143 l 2.97134,-29.714331 a 2.2857143,2.2857143 0 0 0 -2.285625,-2.514241 z"
     id="path2" />
  <path
     style="stroke-width:1.14286"
     d="M 20.255141,-5.9221393 A 2.2857133,2.2857142 7.7916294 0 0 17.4558,-4.3058288 L 16.864237,-2.0980848 5.8250035,-5.056039 A 1.9428563,1.9428571 8.8473944 0 0 4.102133,-4.8077767 2.6285702,2.6285713 8.7489456 0 0 2.9664924,-3.2189026 2.399999,2.4 7.49232 0 0 4.7522856,-0.61068934 L 42.174995,9.4166973 a 1.9428563,1.9428571 8.8473944 0 0 1.722871,-0.248262 2.6285702,2.6285713 8.7489456 0 0 1.135642,-1.588874 2.399999,2.4 7.49232 0 0 -1.785795,-2.6082132 L 32.318958,2.0429964 32.91052,-0.16474824 A 2.2857133,2.2857142 7.7916294 0 0 31.294373,-2.9641854 Z"
     id="path1" />
</svg>
