<?xml version="1.0" encoding="iso-8859-1"?>
<!-- Uploaded to: SVG Repo, www.svgrepo.com, Generator: SVG Repo Mixer Tools -->
<!DOCTYPE svg PUBLIC "-//W3C//DTD SVG 1.1//EN" "http://www.w3.org/Graphics/SVG/1.1/DTD/svg11.dtd">
<svg fill="#000000" version="1.1" id="Capa_1" xmlns="http://www.w3.org/2000/svg" xmlns:xlink="http://www.w3.org/1999/xlink" 
	 width="800px" height="800px" viewBox="0 0 122 122" xml:space="preserve">
<g>
	<path d="M122,103.549v-85c0-10.2-8.3-18.5-18.5-18.5h-85c-10.2,0-18.5,8.3-18.5,18.5v84.9c0,10.199,8.3,18.5,18.5,18.5h84.9
		C113.7,122.049,122,113.75,122,103.549z M55,20.049c0-3.3,2.7-6,6-6h41c3.3,0,6,2.7,6,6v2c0,3.3-2.7,6-6,6H61c-3.3,0-6-2.7-6-6
		V20.049z M41,14.349c3.9,0,7,3.1,7,7c0,3.9-3.1,7-7,7s-7-3.1-7-7C34,17.549,37.1,14.349,41,14.349z M21,14.349c3.9,0,7,3.1,7,7
		c0,3.9-3.1,7-7,7s-7-3.1-7-7C14,17.549,17.1,14.349,21,14.349z M14,103.549v-60.5h94v60.5c0,2.5-2,4.5-4.5,4.5h-85
		C16,108.049,14,106.049,14,103.549z"/>
</g>
</svg>