<?xml version="1.0" encoding="UTF-8" standalone="no"?>
<!-- Generator: Adobe Illustrator 18.1.1, SVG Export Plug-In . SVG Version: 6.00 Build 0)  -->

<svg
   version="1.1"
   id="Layer_1"
   x="0px"
   y="0px"
   viewBox="0 0 400 400"
   enable-background="new 0 0 400 400"
   xml:space="preserve"
   sodipodi:docname="browsersync-f24747.svg"
   inkscape:version="1.3.2 (091e20e, 2023-11-25, custom)"
   xmlns:inkscape="http://www.inkscape.org/namespaces/inkscape"
   xmlns:sodipodi="http://sodipodi.sourceforge.net/DTD/sodipodi-0.dtd"
   xmlns="http://www.w3.org/2000/svg"
   xmlns:svg="http://www.w3.org/2000/svg"><defs
   id="defs2" /><sodipodi:namedview
   id="namedview2"
   pagecolor="#ffffff"
   bordercolor="#000000"
   borderopacity="0.25"
   inkscape:showpageshadow="2"
   inkscape:pageopacity="0.0"
   inkscape:pagecheckerboard="0"
   inkscape:deskcolor="#d1d1d1"
   inkscape:zoom="1.925"
   inkscape:cx="200"
   inkscape:cy="200"
   inkscape:window-width="1680"
   inkscape:window-height="961"
   inkscape:window-x="3591"
   inkscape:window-y="1104"
   inkscape:window-maximized="1"
   inkscape:current-layer="Layer_1" />
<g
   id="g2"
   transform="matrix(1.2122129,0,0,1.212212,-42.44258,-42.47852)">
	<path
   fill="#f24747"
   d="m 189.4,35.6 -99.9,50 c -1.6,0.8 -2.7,2.5 -2.7,4.3 v 220.3 c 0,1.8 1,3.5 2.7,4.3 l 99.9,50 c 3.2,1.6 7,-0.7 7,-4.3 V 39.9 c 0.1,-3.6 -3.7,-6 -7,-4.3 z"
   id="path1" />
	<path
   fill="#f24747"
   d="m 210.6,364.4 99.9,-50 c 1.6,-0.8 2.7,-2.5 2.7,-4.3 V 203 c 0,-1.8 -1,-3.5 -2.7,-4.3 l -99.9,-50 c -3.2,-1.6 -7,0.7 -7,4.3 v 207.1 c -0.1,3.6 3.7,6 7,4.3 z"
   id="path2" />
</g>
</svg>
